G04 #@! TF.GenerationSoftware,KiCad,Pcbnew,(6.0.0)*
G04 #@! TF.CreationDate,2022-10-06T13:38:40+02:00*
G04 #@! TF.ProjectId,2.0,322e302e-6b69-4636-9164-5f7063625858,rev?*
G04 #@! TF.SameCoordinates,Original*
G04 #@! TF.FileFunction,Legend,Bot*
G04 #@! TF.FilePolarity,Positive*
%FSLAX46Y46*%
G04 Gerber Fmt 4.6, Leading zero omitted, Abs format (unit mm)*
G04 Created by KiCad (PCBNEW (6.0.0)) date 2022-10-06 13:38:40*
%MOMM*%
%LPD*%
G01*
G04 APERTURE LIST*
G04 Aperture macros list*
%AMRoundRect*
0 Rectangle with rounded corners*
0 $1 Rounding radius*
0 $2 $3 $4 $5 $6 $7 $8 $9 X,Y pos of 4 corners*
0 Add a 4 corners polygon primitive as box body*
4,1,4,$2,$3,$4,$5,$6,$7,$8,$9,$2,$3,0*
0 Add four circle primitives for the rounded corners*
1,1,$1+$1,$2,$3*
1,1,$1+$1,$4,$5*
1,1,$1+$1,$6,$7*
1,1,$1+$1,$8,$9*
0 Add four rect primitives between the rounded corners*
20,1,$1+$1,$2,$3,$4,$5,0*
20,1,$1+$1,$4,$5,$6,$7,0*
20,1,$1+$1,$6,$7,$8,$9,0*
20,1,$1+$1,$8,$9,$2,$3,0*%
G04 Aperture macros list end*
%ADD10C,0.150000*%
%ADD11C,0.125000*%
%ADD12C,0.120000*%
%ADD13C,0.100000*%
%ADD14C,0.010000*%
%ADD15C,1.001600*%
%ADD16RoundRect,0.050800X0.665455X-1.228941X1.382425X-0.205001X-0.665455X1.228941X-1.382425X0.205001X0*%
%ADD17RoundRect,0.050800X-1.250000X-2.550000X1.250000X-2.550000X1.250000X2.550000X-1.250000X2.550000X0*%
%ADD18C,17.901600*%
G04 APERTURE END LIST*
D10*
X189981465Y-104315919D02*
X189806131Y-104390344D01*
X189832615Y-103965251D02*
X189657281Y-104039676D01*
X189096580Y-103449976D02*
X189226823Y-103756811D01*
X188744654Y-103961480D02*
X189665159Y-103570749D01*
X189479097Y-103132413D01*
X188353923Y-103040975D02*
X188434969Y-103110036D01*
X188541243Y-103116657D01*
X189330247Y-102781745D01*
X188037617Y-102295805D02*
X188519786Y-102091136D01*
X188626060Y-102097757D01*
X188707106Y-102166818D01*
X188781531Y-102342152D01*
X188774910Y-102448425D01*
X188081451Y-102277198D02*
X188074829Y-102383472D01*
X188167861Y-102602640D01*
X188248907Y-102671700D01*
X188355180Y-102678321D01*
X188442847Y-102641109D01*
X188511908Y-102560063D01*
X188518529Y-102453790D01*
X188425498Y-102234622D01*
X188432119Y-102128348D01*
X187913994Y-101882696D02*
X187832948Y-101813635D01*
X187758523Y-101638301D01*
X187765144Y-101532028D01*
X187834205Y-101450982D01*
X187878039Y-101432375D01*
X187984312Y-101438997D01*
X188065358Y-101508057D01*
X188121177Y-101639558D01*
X188202223Y-101708619D01*
X188308496Y-101715240D01*
X188352330Y-101696634D01*
X188421391Y-101615588D01*
X188428012Y-101509314D01*
X188372193Y-101377814D01*
X188291147Y-101308753D01*
X187535248Y-101112298D02*
X188455753Y-100721567D01*
X187367792Y-100717796D02*
X187849961Y-100513128D01*
X187956235Y-100519749D01*
X188037281Y-100588810D01*
X188093100Y-100720310D01*
X188086478Y-100826584D01*
X188061251Y-100889023D01*
X187832612Y-100106640D02*
X187125911Y-100147960D01*
X187646550Y-99668305D02*
X187125911Y-100147960D01*
X186943956Y-100328658D01*
X186918728Y-100391098D01*
X186912107Y-100497371D01*
X187562654Y-98617556D02*
X187339379Y-98091553D01*
X186530511Y-98745286D02*
X187451016Y-98354555D01*
X186288630Y-98175450D02*
X186902300Y-97914962D01*
X186726966Y-97989387D02*
X186796027Y-97908341D01*
X186821254Y-97845901D01*
X186827875Y-97739628D01*
X186790662Y-97651961D01*
X185941732Y-97236338D02*
X185935111Y-97342612D01*
X186009536Y-97517946D01*
X186090582Y-97587007D01*
X186196856Y-97593628D01*
X186547524Y-97444778D01*
X186616585Y-97363732D01*
X186623206Y-97257459D01*
X186548781Y-97082124D01*
X186467735Y-97013063D01*
X186361462Y-97006442D01*
X186273795Y-97043655D01*
X186372190Y-97519203D01*
X185606820Y-96447334D02*
X185600199Y-96553608D01*
X185674624Y-96728942D01*
X185755670Y-96798003D01*
X185861943Y-96804624D01*
X186212612Y-96655774D01*
X186281673Y-96574728D01*
X186288294Y-96468454D01*
X186213869Y-96293120D01*
X186132823Y-96224059D01*
X186026549Y-96217438D01*
X185938882Y-96254651D01*
X186037278Y-96730199D01*
X186316035Y-95680707D02*
X186140701Y-95755132D01*
X186167185Y-95330039D02*
X185991851Y-95404464D01*
X184781524Y-94624931D02*
X185702029Y-94234200D01*
X185351361Y-94383050D02*
X185357982Y-94276776D01*
X185283557Y-94101442D01*
X185202511Y-94032381D01*
X185140071Y-94007154D01*
X185033797Y-94000533D01*
X184770796Y-94112170D01*
X184701735Y-94193216D01*
X184676508Y-94255656D01*
X184669887Y-94361929D01*
X184744312Y-94537264D01*
X184825358Y-94606325D01*
X185078888Y-93619273D02*
X184372187Y-93660592D01*
X184892826Y-93180937D02*
X184372187Y-93660592D01*
X184190232Y-93841291D01*
X184165004Y-93903731D01*
X184158383Y-94010004D01*
X183609331Y-91863416D02*
X184177910Y-91984189D01*
X183832606Y-92389419D02*
X184753111Y-91998688D01*
X184604261Y-91648019D01*
X184523215Y-91578958D01*
X184460775Y-91553731D01*
X184354501Y-91547110D01*
X184223001Y-91602929D01*
X184153940Y-91683975D01*
X184128713Y-91746415D01*
X184122091Y-91852688D01*
X184270941Y-92203357D01*
X183386056Y-91337413D02*
X183467102Y-91406474D01*
X183529542Y-91431702D01*
X183635815Y-91438323D01*
X183898817Y-91326685D01*
X183967877Y-91245639D01*
X183993105Y-91183199D01*
X183999726Y-91076926D01*
X183943907Y-90945425D01*
X183862861Y-90876364D01*
X183800421Y-90851137D01*
X183694148Y-90844516D01*
X183431146Y-90956154D01*
X183362086Y-91037200D01*
X183336858Y-91099639D01*
X183330237Y-91205913D01*
X183386056Y-91337413D01*
X183088356Y-90636076D02*
X184008861Y-90245345D01*
X183658192Y-90394195D02*
X183664813Y-90287922D01*
X183590388Y-90112588D01*
X183509342Y-90043527D01*
X183446903Y-90018299D01*
X183340629Y-90011678D01*
X183077628Y-90123316D01*
X183008567Y-90204362D01*
X182983340Y-90266802D01*
X182976719Y-90373075D01*
X183051144Y-90548409D01*
X183132190Y-90617470D01*
X182629821Y-89433964D02*
X182623200Y-89540237D01*
X182697625Y-89715572D01*
X182778671Y-89784632D01*
X182884944Y-89791254D01*
X183235613Y-89642404D01*
X183304674Y-89561358D01*
X183311295Y-89455084D01*
X183236870Y-89279750D01*
X183155824Y-89210689D01*
X183049550Y-89204068D01*
X182961883Y-89241280D01*
X183060279Y-89716829D01*
X182399925Y-89014235D02*
X183013595Y-88753747D01*
X182838261Y-88828172D02*
X182907322Y-88747126D01*
X182932549Y-88684686D01*
X182939170Y-88578413D01*
X182901957Y-88490746D01*
X182827532Y-88315411D02*
X182678683Y-87964743D01*
X183078549Y-88053667D02*
X182289545Y-88388579D01*
X182183271Y-88381958D01*
X182102225Y-88312898D01*
X182065013Y-88225230D01*
X181637069Y-87217058D02*
X182557574Y-86826327D01*
X182408724Y-86475659D01*
X182327678Y-86406598D01*
X182265238Y-86381371D01*
X182158965Y-86374749D01*
X182027464Y-86430568D01*
X181958403Y-86511614D01*
X181933176Y-86574054D01*
X181926555Y-86680327D01*
X182075405Y-87030996D01*
X181190519Y-86165053D02*
X181271565Y-86234114D01*
X181334005Y-86259341D01*
X181440278Y-86265962D01*
X181703280Y-86154325D01*
X181772341Y-86073279D01*
X181797568Y-86010839D01*
X181804189Y-85904565D01*
X181748370Y-85773065D01*
X181667324Y-85704004D01*
X181604884Y-85678777D01*
X181498611Y-85672155D01*
X181235610Y-85783793D01*
X181166549Y-85864839D01*
X181141321Y-85927279D01*
X181134700Y-86033552D01*
X181190519Y-86165053D01*
X180955259Y-85488943D02*
X180874213Y-85419882D01*
X180799788Y-85244548D01*
X180806409Y-85138275D01*
X180875470Y-85057229D01*
X180919304Y-85038622D01*
X181025577Y-85045243D01*
X181106623Y-85114304D01*
X181162442Y-85245805D01*
X181243488Y-85314866D01*
X181349761Y-85321487D01*
X181393595Y-85302881D01*
X181462656Y-85221835D01*
X181469277Y-85115561D01*
X181413458Y-84984061D01*
X181332412Y-84915000D01*
X181246002Y-84589559D02*
X181097152Y-84238890D01*
X181497018Y-84327814D02*
X180708014Y-84662727D01*
X180601740Y-84656105D01*
X180520694Y-84587045D01*
X180483482Y-84499377D01*
X180353238Y-84192542D02*
X180966908Y-83932055D01*
X180879241Y-83969268D02*
X180904468Y-83906828D01*
X180911089Y-83800554D01*
X180855271Y-83669054D01*
X180774225Y-83599993D01*
X180667951Y-83593372D01*
X180185782Y-83798040D01*
X180667951Y-83593372D02*
X180737012Y-83512326D01*
X180743633Y-83406052D01*
X180687814Y-83274552D01*
X180606768Y-83205491D01*
X180500495Y-83198870D01*
X180018326Y-83403538D01*
X179664807Y-82570701D02*
X180146976Y-82366032D01*
X180253250Y-82372653D01*
X180334296Y-82441714D01*
X180408721Y-82617048D01*
X180402100Y-82723321D01*
X179708641Y-82552094D02*
X179702020Y-82658368D01*
X179795051Y-82877536D01*
X179876097Y-82946596D01*
X179982370Y-82953217D01*
X180070037Y-82916005D01*
X180139098Y-82834959D01*
X180145719Y-82728686D01*
X180052688Y-82509518D01*
X180059309Y-82403244D01*
D11*
X187604398Y-104468837D02*
X188064651Y-104273471D01*
X187520670Y-104271586D02*
X187761755Y-104169251D01*
X187814892Y-104172562D01*
X187855415Y-104207092D01*
X187883324Y-104272843D01*
X187880013Y-104325979D01*
X187867400Y-104357199D01*
X187762383Y-103987925D02*
X187687958Y-103812590D01*
X187887892Y-103857052D02*
X187493389Y-104024509D01*
X187440253Y-104021198D01*
X187399730Y-103986668D01*
X187381123Y-103942834D01*
X187650746Y-103724923D02*
X187576321Y-103549589D01*
X187776254Y-103594051D02*
X187381752Y-103761507D01*
X187328615Y-103758197D01*
X187288092Y-103723666D01*
X187269486Y-103679833D01*
X187511199Y-103396172D02*
X187050947Y-103591537D01*
X187489282Y-103405475D02*
X187492593Y-103352338D01*
X187455380Y-103264671D01*
X187414857Y-103230140D01*
X187383637Y-103217527D01*
X187330501Y-103214216D01*
X187199000Y-103270035D01*
X187164470Y-103310558D01*
X187151856Y-103341778D01*
X187148545Y-103394915D01*
X187185758Y-103482582D01*
X187226281Y-103517112D01*
X187058825Y-103122610D02*
X187018302Y-103088080D01*
X186981089Y-103000412D01*
X186984400Y-102947276D01*
X187018930Y-102906753D01*
X187040847Y-102897450D01*
X187093984Y-102900760D01*
X187134507Y-102935291D01*
X187162416Y-103001041D01*
X187202939Y-103035571D01*
X187256076Y-103038882D01*
X187277993Y-103029579D01*
X187312523Y-102989056D01*
X187315834Y-102935919D01*
X187287924Y-102870169D01*
X187247401Y-102835638D01*
X186913285Y-102718805D02*
X186882065Y-102706191D01*
X186869452Y-102737411D01*
X186900672Y-102750025D01*
X186913285Y-102718805D01*
X186869452Y-102737411D01*
X187154370Y-102616470D02*
X187123150Y-102603857D01*
X187110536Y-102635077D01*
X187141756Y-102647690D01*
X187154370Y-102616470D01*
X187110536Y-102635077D01*
X187119043Y-101984823D02*
X186694746Y-102630509D01*
X186914374Y-101502654D02*
X186490077Y-102148340D01*
X186590190Y-101226410D02*
X186217605Y-101384563D01*
X186183074Y-101425086D01*
X186170461Y-101456306D01*
X186167150Y-101509443D01*
X186195059Y-101575193D01*
X186235582Y-101609724D01*
X186305272Y-101347351D02*
X186301961Y-101400487D01*
X186339174Y-101488154D01*
X186379697Y-101522685D01*
X186410917Y-101535299D01*
X186464053Y-101538609D01*
X186595554Y-101482790D01*
X186630085Y-101442267D01*
X186642698Y-101411047D01*
X186646009Y-101357911D01*
X186608796Y-101270244D01*
X186568273Y-101235713D01*
X186190324Y-101137486D02*
X186497159Y-101007242D01*
X186650576Y-100942120D02*
X186637963Y-100973340D01*
X186606743Y-100960727D01*
X186619356Y-100929507D01*
X186650576Y-100942120D01*
X186606743Y-100960727D01*
X186432037Y-100853825D02*
X186357612Y-100678491D01*
X186557545Y-100722953D02*
X186163043Y-100890409D01*
X186109906Y-100887098D01*
X186069383Y-100852568D01*
X186050777Y-100808734D01*
X185985655Y-100655317D02*
X186445908Y-100459951D01*
X185901927Y-100458066D02*
X186143012Y-100355731D01*
X186196148Y-100359042D01*
X186236671Y-100393572D01*
X186264581Y-100459323D01*
X186261270Y-100512459D01*
X186248657Y-100543679D01*
X186032003Y-99911403D02*
X185725168Y-100041647D01*
X186115731Y-100108654D02*
X185874646Y-100210989D01*
X185821510Y-100207678D01*
X185780986Y-100173148D01*
X185753077Y-100107397D01*
X185756388Y-100054261D01*
X185769001Y-100023041D01*
X185632137Y-99822479D02*
X186092389Y-99627113D01*
X185917055Y-99701538D02*
X185920365Y-99648402D01*
X185883153Y-99560735D01*
X185842630Y-99526204D01*
X185811410Y-99513591D01*
X185758273Y-99510280D01*
X185626772Y-99566099D01*
X185592242Y-99606622D01*
X185579628Y-99637842D01*
X185576318Y-99690978D01*
X185613530Y-99778645D01*
X185654053Y-99813176D01*
X185499211Y-99387454D02*
X185467991Y-99374840D01*
X185455377Y-99406060D01*
X185486597Y-99418674D01*
X185499211Y-99387454D01*
X185455377Y-99406060D01*
X185300535Y-98980338D02*
X185297224Y-99033475D01*
X185334437Y-99121142D01*
X185374960Y-99155672D01*
X185406180Y-99168286D01*
X185459316Y-99171597D01*
X185590817Y-99115778D01*
X185625347Y-99075255D01*
X185637961Y-99044035D01*
X185641272Y-98990898D01*
X185604059Y-98903231D01*
X185563536Y-98868701D01*
X185166980Y-98726640D02*
X185207503Y-98761170D01*
X185238723Y-98773784D01*
X185291860Y-98777095D01*
X185423361Y-98721276D01*
X185457891Y-98680753D01*
X185470505Y-98649533D01*
X185473815Y-98596396D01*
X185445906Y-98530646D01*
X185405383Y-98496115D01*
X185374163Y-98483502D01*
X185321026Y-98480191D01*
X185189526Y-98536010D01*
X185154995Y-98576533D01*
X185142382Y-98607753D01*
X185139071Y-98660890D01*
X185166980Y-98726640D01*
X185018130Y-98375971D02*
X185324965Y-98245728D01*
X185281132Y-98264334D02*
X185293746Y-98233114D01*
X185297056Y-98179977D01*
X185269147Y-98114227D01*
X185228624Y-98079697D01*
X185175487Y-98076386D01*
X184934402Y-98178720D01*
X185175487Y-98076386D02*
X185210017Y-98035863D01*
X185213328Y-97982726D01*
X185185419Y-97916976D01*
X185144896Y-97882446D01*
X185091759Y-97879135D01*
X184850674Y-97981469D01*
X185100265Y-97228881D02*
X184675969Y-97874567D01*
X184776081Y-96952638D02*
X184403496Y-97110791D01*
X184368965Y-97151314D01*
X184356352Y-97182534D01*
X184353041Y-97235670D01*
X184380951Y-97301421D01*
X184421474Y-97335951D01*
X184491163Y-97073578D02*
X184487853Y-97126715D01*
X184525065Y-97214382D01*
X184565588Y-97248912D01*
X184596808Y-97261526D01*
X184649945Y-97264837D01*
X184781445Y-97209018D01*
X184815976Y-97168495D01*
X184828589Y-97137275D01*
X184831900Y-97084138D01*
X184794687Y-96996471D01*
X184754164Y-96961941D01*
X184683050Y-96733470D02*
X184288548Y-96900926D01*
X184254017Y-96941449D01*
X184250707Y-96994586D01*
X184260010Y-97016502D01*
X184836467Y-96668348D02*
X184823854Y-96699568D01*
X184792634Y-96686954D01*
X184805248Y-96655734D01*
X184836467Y-96668348D01*
X184792634Y-96686954D01*
X184255274Y-96578795D02*
X184295797Y-96613326D01*
X184348934Y-96616636D01*
X184743436Y-96449180D01*
X184487684Y-96273217D02*
X184027432Y-96468583D01*
X184465768Y-96282520D02*
X184469078Y-96229384D01*
X184431866Y-96141717D01*
X184391343Y-96107186D01*
X184360123Y-96094572D01*
X184306986Y-96091262D01*
X184175485Y-96147081D01*
X184140955Y-96187604D01*
X184128341Y-96218824D01*
X184125031Y-96271960D01*
X184162243Y-96359627D01*
X184202766Y-96394158D01*
X184429812Y-95832200D02*
X184442426Y-95800980D01*
X184445736Y-95747843D01*
X184399221Y-95638259D01*
X184358698Y-95603729D01*
X184327478Y-95591115D01*
X184274341Y-95587804D01*
X184230508Y-95606411D01*
X184174060Y-95656237D01*
X184022696Y-96030876D01*
X183901756Y-95745958D01*
X184185249Y-95134173D02*
X184278280Y-95353341D01*
X184068415Y-95468289D01*
X184081029Y-95437069D01*
X184084340Y-95383932D01*
X184037824Y-95274348D01*
X183997301Y-95239818D01*
X183966081Y-95227204D01*
X183912944Y-95223894D01*
X183803361Y-95270409D01*
X183768830Y-95310932D01*
X183756216Y-95342152D01*
X183752906Y-95395289D01*
X183799421Y-95504873D01*
X183839945Y-95539403D01*
X183871164Y-95552017D01*
X183974588Y-94576950D02*
X183550291Y-95222637D01*
X183427297Y-94628202D02*
X183887549Y-94432836D01*
X183315659Y-94365200D02*
X183662389Y-94450814D01*
X183775912Y-94169835D02*
X183624548Y-94544474D01*
X183231931Y-94167949D02*
X183538766Y-94037705D01*
X183692183Y-93972584D02*
X183679570Y-94003804D01*
X183648350Y-93991190D01*
X183660964Y-93959970D01*
X183692183Y-93972584D01*
X183648350Y-93991190D01*
X183071096Y-93667174D02*
X183058482Y-93698394D01*
X183064475Y-93773447D01*
X183083081Y-93817281D01*
X183132907Y-93873728D01*
X183195347Y-93898955D01*
X183248484Y-93902266D01*
X183345454Y-93886970D01*
X183411204Y-93859061D01*
X183489568Y-93799931D01*
X183524099Y-93759408D01*
X183549326Y-93696969D01*
X183543333Y-93621915D01*
X183524727Y-93578082D01*
X183474901Y-93521634D01*
X183443681Y-93509021D01*
X182859806Y-93291278D02*
X183100891Y-93188944D01*
X183154027Y-93192254D01*
X183194550Y-93226785D01*
X183231763Y-93314452D01*
X183228452Y-93367588D01*
X182881723Y-93281975D02*
X182878412Y-93335111D01*
X182924928Y-93444695D01*
X182965451Y-93479226D01*
X183018588Y-93482536D01*
X183062421Y-93463930D01*
X183096952Y-93423407D01*
X183100262Y-93370270D01*
X183053747Y-93260687D01*
X183057057Y-93207550D01*
X182683047Y-92874859D02*
X183143299Y-92679493D01*
X182704964Y-92865556D02*
X182701653Y-92918693D01*
X182738866Y-93006360D01*
X182779389Y-93040890D01*
X182810608Y-93053504D01*
X182863745Y-93056814D01*
X182995246Y-93000996D01*
X183029776Y-92960473D01*
X183042390Y-92929253D01*
X183045701Y-92876116D01*
X183008488Y-92788449D01*
X182967965Y-92753918D01*
X182592698Y-92783881D02*
X182443848Y-92433213D01*
X182617128Y-92049271D02*
X182682250Y-92202688D01*
X182441166Y-92305023D02*
X182901418Y-92109657D01*
X182808387Y-91890489D01*
X182245800Y-91844770D02*
X182286323Y-91879301D01*
X182339460Y-91882611D01*
X182733962Y-91715155D01*
X182087647Y-91472185D02*
X182328732Y-91369851D01*
X182381868Y-91373161D01*
X182422391Y-91407692D01*
X182459604Y-91495359D01*
X182456293Y-91548495D01*
X182109564Y-91462882D02*
X182106253Y-91516019D01*
X182152769Y-91625602D01*
X182193292Y-91660133D01*
X182246429Y-91663443D01*
X182290262Y-91644837D01*
X182324793Y-91604314D01*
X182328103Y-91551177D01*
X182281588Y-91441594D01*
X182284898Y-91388457D01*
X182025836Y-91265631D02*
X181985313Y-91231100D01*
X181948100Y-91143433D01*
X181951411Y-91090297D01*
X181985941Y-91049774D01*
X182007858Y-91040470D01*
X182060995Y-91043781D01*
X182101518Y-91078311D01*
X182129427Y-91144062D01*
X182169950Y-91178592D01*
X182223087Y-91181903D01*
X182245004Y-91172600D01*
X182279534Y-91132077D01*
X182282844Y-91078940D01*
X182254935Y-91013190D01*
X182214412Y-90978659D01*
X181836463Y-90880432D02*
X182296715Y-90685066D01*
X181752735Y-90683181D02*
X181993819Y-90580846D01*
X182046956Y-90584157D01*
X182087479Y-90618687D01*
X182115388Y-90684438D01*
X182112078Y-90737575D01*
X182099464Y-90768794D01*
X181985145Y-90377603D02*
X181631794Y-90398263D01*
X181892113Y-90158435D02*
X181631794Y-90398263D01*
X181540816Y-90488612D01*
X181528203Y-90519832D01*
X181524892Y-90572968D01*
X181999015Y-89983729D02*
X181887378Y-89720728D01*
X181482944Y-90047594D02*
X181943196Y-89852229D01*
X181362003Y-89762676D02*
X181668838Y-89632432D01*
X181581171Y-89669645D02*
X181615702Y-89629122D01*
X181628315Y-89597902D01*
X181631626Y-89544765D01*
X181613020Y-89500932D01*
X181188555Y-89293120D02*
X181185244Y-89346257D01*
X181222457Y-89433924D01*
X181262980Y-89468455D01*
X181316116Y-89471765D01*
X181491451Y-89397340D01*
X181525981Y-89356817D01*
X181529292Y-89303681D01*
X181492079Y-89216013D01*
X181451556Y-89181483D01*
X181398419Y-89178172D01*
X181354586Y-89196779D01*
X181403783Y-89434553D01*
X181021099Y-88898618D02*
X181017788Y-88951755D01*
X181055000Y-89039422D01*
X181095523Y-89073953D01*
X181148660Y-89077263D01*
X181323994Y-89002838D01*
X181358525Y-88962315D01*
X181361835Y-88909178D01*
X181324623Y-88821511D01*
X181284100Y-88786981D01*
X181230963Y-88783670D01*
X181187130Y-88802277D01*
X181236327Y-89040051D01*
D12*
X171214067Y-98837643D02*
X171214067Y-98837643D01*
X171402455Y-99091631D02*
X170943594Y-99746953D01*
X171984614Y-95470707D02*
X171697826Y-95880283D01*
X170894819Y-97027096D02*
X170894819Y-97027096D01*
X174270337Y-94995871D02*
X173811476Y-95651193D01*
X174933051Y-101197549D02*
X174933051Y-101197549D01*
X170149169Y-98091994D02*
X170435958Y-97682418D01*
X171525753Y-96126029D02*
X171066892Y-96781350D01*
X171066892Y-96781350D02*
X171066892Y-96781350D01*
X170214260Y-101311584D02*
X170214260Y-101311584D01*
X174057222Y-95823265D02*
X173082142Y-97215824D01*
X170435958Y-97682418D02*
X170435958Y-97682418D01*
X172156687Y-95224961D02*
X172156687Y-95224961D01*
X171648201Y-99263704D02*
X171402455Y-99091631D01*
X172853051Y-95102174D02*
X172853051Y-95102174D01*
X171697826Y-95880283D02*
X171697826Y-95880283D01*
X177800933Y-97101789D02*
X178603940Y-95954976D01*
X170804491Y-98550855D02*
X171214067Y-98837643D01*
X173508373Y-95561035D02*
X173508373Y-95561035D01*
X170214260Y-101311584D02*
X173327037Y-103491175D01*
X174516083Y-95167944D02*
X174270337Y-94995871D01*
X172836396Y-97043751D02*
X172377535Y-97699073D01*
X172377535Y-97699073D02*
X172623281Y-97871146D01*
X172443475Y-94815385D02*
X172853051Y-95102174D01*
X171189339Y-99919026D02*
X170214260Y-101311584D01*
X170149169Y-98091994D02*
X170558745Y-98378782D01*
X170608031Y-97436672D02*
X170894819Y-97027096D01*
X178603940Y-95954976D02*
X175491163Y-93775385D01*
X173098797Y-95274247D02*
X173508373Y-95561035D01*
X170558745Y-98378782D02*
X170558745Y-98378782D01*
X176366992Y-99149669D02*
X176366992Y-99149669D01*
X173082142Y-97215824D02*
X172836396Y-97043751D01*
X173811476Y-95651193D02*
X174057222Y-95823265D01*
X170943594Y-99746953D02*
X171189339Y-99919026D01*
X172443475Y-94815385D02*
X172156687Y-95224961D01*
X175491163Y-93775385D02*
X174516083Y-95167944D01*
X172623281Y-97871146D02*
X171648201Y-99263704D01*
X176997926Y-98248602D02*
X176366992Y-99149669D01*
X173327037Y-103491175D02*
X174130044Y-102344362D01*
X175563985Y-100296482D02*
X174933051Y-101197549D01*
D13*
X169876360Y-106595720D02*
X169876360Y-110845720D01*
X174926360Y-122095720D02*
X169876360Y-122095720D01*
X169876360Y-122095720D02*
X169876360Y-117845720D01*
X190976360Y-122095720D02*
X190976360Y-117845720D01*
X174926360Y-106595720D02*
X169876360Y-106595720D01*
X190976360Y-106595720D02*
X190976360Y-110845720D01*
X185926360Y-122095720D02*
X190976360Y-122095720D01*
X185926360Y-106595720D02*
X190976360Y-106595720D01*
D14*
X165886090Y-117532348D02*
X165807546Y-117532778D01*
X165807546Y-117532778D02*
X165750702Y-117533942D01*
X165750702Y-117533942D02*
X165711895Y-117536207D01*
X165711895Y-117536207D02*
X165687462Y-117539940D01*
X165687462Y-117539940D02*
X165673738Y-117545506D01*
X165673738Y-117545506D02*
X165667060Y-117553273D01*
X165667060Y-117553273D02*
X165663764Y-117563605D01*
X165663764Y-117563605D02*
X165663444Y-117564943D01*
X165663444Y-117564943D02*
X165658438Y-117589079D01*
X165658438Y-117589079D02*
X165649171Y-117636701D01*
X165649171Y-117636701D02*
X165636608Y-117702741D01*
X165636608Y-117702741D02*
X165621713Y-117782128D01*
X165621713Y-117782128D02*
X165605449Y-117869796D01*
X165605449Y-117869796D02*
X165604881Y-117872875D01*
X165604881Y-117872875D02*
X165588590Y-117958789D01*
X165588590Y-117958789D02*
X165573348Y-118034696D01*
X165573348Y-118034696D02*
X165560139Y-118096045D01*
X165560139Y-118096045D02*
X165549946Y-118138282D01*
X165549946Y-118138282D02*
X165543752Y-118156855D01*
X165543752Y-118156855D02*
X165543457Y-118157184D01*
X165543457Y-118157184D02*
X165525212Y-118166253D01*
X165525212Y-118166253D02*
X165487595Y-118181367D01*
X165487595Y-118181367D02*
X165438729Y-118199262D01*
X165438729Y-118199262D02*
X165438457Y-118199358D01*
X165438457Y-118199358D02*
X165376907Y-118222493D01*
X165376907Y-118222493D02*
X165304343Y-118251965D01*
X165304343Y-118251965D02*
X165235943Y-118281597D01*
X165235943Y-118281597D02*
X165232706Y-118283062D01*
X165232706Y-118283062D02*
X165121298Y-118333626D01*
X165121298Y-118333626D02*
X164874601Y-118165160D01*
X164874601Y-118165160D02*
X164798923Y-118113803D01*
X164798923Y-118113803D02*
X164730369Y-118067889D01*
X164730369Y-118067889D02*
X164672912Y-118030030D01*
X164672912Y-118030030D02*
X164630524Y-118002837D01*
X164630524Y-118002837D02*
X164607175Y-117988921D01*
X164607175Y-117988921D02*
X164604958Y-117987889D01*
X164604958Y-117987889D02*
X164587990Y-117992484D01*
X164587990Y-117992484D02*
X164556299Y-118014655D01*
X164556299Y-118014655D02*
X164508648Y-118055447D01*
X164508648Y-118055447D02*
X164443802Y-118115905D01*
X164443802Y-118115905D02*
X164377603Y-118180227D01*
X164377603Y-118180227D02*
X164313786Y-118243612D01*
X164313786Y-118243612D02*
X164256671Y-118301451D01*
X164256671Y-118301451D02*
X164209695Y-118350175D01*
X164209695Y-118350175D02*
X164176297Y-118386210D01*
X164176297Y-118386210D02*
X164159915Y-118405984D01*
X164159915Y-118405984D02*
X164159306Y-118407002D01*
X164159306Y-118407002D02*
X164157495Y-118420572D01*
X164157495Y-118420572D02*
X164164317Y-118442733D01*
X164164317Y-118442733D02*
X164181460Y-118476478D01*
X164181460Y-118476478D02*
X164210607Y-118524800D01*
X164210607Y-118524800D02*
X164253445Y-118590692D01*
X164253445Y-118590692D02*
X164310552Y-118675517D01*
X164310552Y-118675517D02*
X164361234Y-118750177D01*
X164361234Y-118750177D02*
X164406539Y-118817140D01*
X164406539Y-118817140D02*
X164443850Y-118872516D01*
X164443850Y-118872516D02*
X164470548Y-118912420D01*
X164470548Y-118912420D02*
X164484015Y-118932962D01*
X164484015Y-118932962D02*
X164484863Y-118934356D01*
X164484863Y-118934356D02*
X164483219Y-118954038D01*
X164483219Y-118954038D02*
X164470755Y-118992293D01*
X164470755Y-118992293D02*
X164449952Y-119041889D01*
X164449952Y-119041889D02*
X164442538Y-119057728D01*
X164442538Y-119057728D02*
X164410186Y-119128290D01*
X164410186Y-119128290D02*
X164375672Y-119208353D01*
X164375672Y-119208353D02*
X164347635Y-119277629D01*
X164347635Y-119277629D02*
X164327432Y-119329045D01*
X164327432Y-119329045D02*
X164311385Y-119368119D01*
X164311385Y-119368119D02*
X164302112Y-119388541D01*
X164302112Y-119388541D02*
X164300959Y-119390114D01*
X164300959Y-119390114D02*
X164283904Y-119392721D01*
X164283904Y-119392721D02*
X164243702Y-119399863D01*
X164243702Y-119399863D02*
X164185698Y-119410523D01*
X164185698Y-119410523D02*
X164115237Y-119423685D01*
X164115237Y-119423685D02*
X164037665Y-119438333D01*
X164037665Y-119438333D02*
X163958328Y-119453449D01*
X163958328Y-119453449D02*
X163882569Y-119468018D01*
X163882569Y-119468018D02*
X163815736Y-119481022D01*
X163815736Y-119481022D02*
X163763172Y-119491445D01*
X163763172Y-119491445D02*
X163730224Y-119498270D01*
X163730224Y-119498270D02*
X163722143Y-119500199D01*
X163722143Y-119500199D02*
X163713795Y-119504962D01*
X163713795Y-119504962D02*
X163707494Y-119515718D01*
X163707494Y-119515718D02*
X163702955Y-119536098D01*
X163702955Y-119536098D02*
X163699896Y-119569734D01*
X163699896Y-119569734D02*
X163698033Y-119620255D01*
X163698033Y-119620255D02*
X163697082Y-119691292D01*
X163697082Y-119691292D02*
X163696760Y-119786476D01*
X163696760Y-119786476D02*
X163696743Y-119825492D01*
X163696743Y-119825492D02*
X163696743Y-120142799D01*
X163696743Y-120142799D02*
X163772943Y-120157839D01*
X163772943Y-120157839D02*
X163815337Y-120165995D01*
X163815337Y-120165995D02*
X163878600Y-120177899D01*
X163878600Y-120177899D02*
X163955038Y-120192116D01*
X163955038Y-120192116D02*
X164036957Y-120207210D01*
X164036957Y-120207210D02*
X164059600Y-120211355D01*
X164059600Y-120211355D02*
X164135194Y-120226053D01*
X164135194Y-120226053D02*
X164201047Y-120240505D01*
X164201047Y-120240505D02*
X164251634Y-120253375D01*
X164251634Y-120253375D02*
X164281426Y-120263322D01*
X164281426Y-120263322D02*
X164286388Y-120266287D01*
X164286388Y-120266287D02*
X164298574Y-120287283D01*
X164298574Y-120287283D02*
X164316047Y-120327967D01*
X164316047Y-120327967D02*
X164335423Y-120380322D01*
X164335423Y-120380322D02*
X164339266Y-120391600D01*
X164339266Y-120391600D02*
X164364661Y-120461523D01*
X164364661Y-120461523D02*
X164396183Y-120540418D01*
X164396183Y-120540418D02*
X164427031Y-120611266D01*
X164427031Y-120611266D02*
X164427183Y-120611595D01*
X164427183Y-120611595D02*
X164478553Y-120722733D01*
X164478553Y-120722733D02*
X164309601Y-120971253D01*
X164309601Y-120971253D02*
X164140648Y-121219772D01*
X164140648Y-121219772D02*
X164357571Y-121437058D01*
X164357571Y-121437058D02*
X164423181Y-121501726D01*
X164423181Y-121501726D02*
X164483021Y-121558733D01*
X164483021Y-121558733D02*
X164533733Y-121605033D01*
X164533733Y-121605033D02*
X164571954Y-121637584D01*
X164571954Y-121637584D02*
X164594325Y-121653343D01*
X164594325Y-121653343D02*
X164597534Y-121654343D01*
X164597534Y-121654343D02*
X164616374Y-121646469D01*
X164616374Y-121646469D02*
X164654820Y-121624578D01*
X164654820Y-121624578D02*
X164708670Y-121591267D01*
X164708670Y-121591267D02*
X164773724Y-121549131D01*
X164773724Y-121549131D02*
X164844060Y-121501943D01*
X164844060Y-121501943D02*
X164915445Y-121453810D01*
X164915445Y-121453810D02*
X164979092Y-121411928D01*
X164979092Y-121411928D02*
X165030959Y-121378871D01*
X165030959Y-121378871D02*
X165067005Y-121357218D01*
X165067005Y-121357218D02*
X165083133Y-121349543D01*
X165083133Y-121349543D02*
X165102811Y-121356037D01*
X165102811Y-121356037D02*
X165140125Y-121373150D01*
X165140125Y-121373150D02*
X165187379Y-121397326D01*
X165187379Y-121397326D02*
X165192388Y-121400013D01*
X165192388Y-121400013D02*
X165256023Y-121431927D01*
X165256023Y-121431927D02*
X165299659Y-121447579D01*
X165299659Y-121447579D02*
X165326798Y-121447745D01*
X165326798Y-121447745D02*
X165340943Y-121433204D01*
X165340943Y-121433204D02*
X165341025Y-121433000D01*
X165341025Y-121433000D02*
X165348095Y-121415779D01*
X165348095Y-121415779D02*
X165364958Y-121374899D01*
X165364958Y-121374899D02*
X165390305Y-121313525D01*
X165390305Y-121313525D02*
X165422829Y-121234819D01*
X165422829Y-121234819D02*
X165461222Y-121141947D01*
X165461222Y-121141947D02*
X165504178Y-121038072D01*
X165504178Y-121038072D02*
X165545778Y-120937502D01*
X165545778Y-120937502D02*
X165591496Y-120826516D01*
X165591496Y-120826516D02*
X165633474Y-120723703D01*
X165633474Y-120723703D02*
X165670452Y-120632215D01*
X165670452Y-120632215D02*
X165701173Y-120555201D01*
X165701173Y-120555201D02*
X165724378Y-120495815D01*
X165724378Y-120495815D02*
X165738810Y-120457209D01*
X165738810Y-120457209D02*
X165743257Y-120442800D01*
X165743257Y-120442800D02*
X165732104Y-120426272D01*
X165732104Y-120426272D02*
X165702931Y-120399930D01*
X165702931Y-120399930D02*
X165664029Y-120370887D01*
X165664029Y-120370887D02*
X165553243Y-120279039D01*
X165553243Y-120279039D02*
X165466649Y-120173759D01*
X165466649Y-120173759D02*
X165405284Y-120057266D01*
X165405284Y-120057266D02*
X165370185Y-119931776D01*
X165370185Y-119931776D02*
X165362392Y-119799507D01*
X165362392Y-119799507D02*
X165368057Y-119738457D01*
X165368057Y-119738457D02*
X165398922Y-119611795D01*
X165398922Y-119611795D02*
X165452080Y-119499941D01*
X165452080Y-119499941D02*
X165524233Y-119404001D01*
X165524233Y-119404001D02*
X165612083Y-119325076D01*
X165612083Y-119325076D02*
X165712335Y-119264270D01*
X165712335Y-119264270D02*
X165821690Y-119222687D01*
X165821690Y-119222687D02*
X165936853Y-119201428D01*
X165936853Y-119201428D02*
X166054525Y-119201599D01*
X166054525Y-119201599D02*
X166171410Y-119224301D01*
X166171410Y-119224301D02*
X166284211Y-119270638D01*
X166284211Y-119270638D02*
X166389631Y-119341713D01*
X166389631Y-119341713D02*
X166433632Y-119381911D01*
X166433632Y-119381911D02*
X166518021Y-119485129D01*
X166518021Y-119485129D02*
X166576778Y-119597925D01*
X166576778Y-119597925D02*
X166610296Y-119717010D01*
X166610296Y-119717010D02*
X166618965Y-119839095D01*
X166618965Y-119839095D02*
X166603177Y-119960893D01*
X166603177Y-119960893D02*
X166563322Y-120079116D01*
X166563322Y-120079116D02*
X166499793Y-120190475D01*
X166499793Y-120190475D02*
X166412979Y-120291684D01*
X166412979Y-120291684D02*
X166315971Y-120370887D01*
X166315971Y-120370887D02*
X166275563Y-120401162D01*
X166275563Y-120401162D02*
X166247018Y-120427219D01*
X166247018Y-120427219D02*
X166236743Y-120442825D01*
X166236743Y-120442825D02*
X166242123Y-120459843D01*
X166242123Y-120459843D02*
X166257425Y-120500500D01*
X166257425Y-120500500D02*
X166281388Y-120561642D01*
X166281388Y-120561642D02*
X166312756Y-120640119D01*
X166312756Y-120640119D02*
X166350268Y-120732780D01*
X166350268Y-120732780D02*
X166392667Y-120836472D01*
X166392667Y-120836472D02*
X166434337Y-120937526D01*
X166434337Y-120937526D02*
X166480310Y-121048607D01*
X166480310Y-121048607D02*
X166522893Y-121151541D01*
X166522893Y-121151541D02*
X166560779Y-121243165D01*
X166560779Y-121243165D02*
X166592660Y-121320316D01*
X166592660Y-121320316D02*
X166617229Y-121379831D01*
X166617229Y-121379831D02*
X166633180Y-121418544D01*
X166633180Y-121418544D02*
X166639090Y-121433000D01*
X166639090Y-121433000D02*
X166653052Y-121447685D01*
X166653052Y-121447685D02*
X166680060Y-121447642D01*
X166680060Y-121447642D02*
X166723587Y-121432099D01*
X166723587Y-121432099D02*
X166787110Y-121400284D01*
X166787110Y-121400284D02*
X166787612Y-121400013D01*
X166787612Y-121400013D02*
X166835440Y-121375323D01*
X166835440Y-121375323D02*
X166874103Y-121357338D01*
X166874103Y-121357338D02*
X166895905Y-121349614D01*
X166895905Y-121349614D02*
X166896867Y-121349543D01*
X166896867Y-121349543D02*
X166913279Y-121357378D01*
X166913279Y-121357378D02*
X166949513Y-121379165D01*
X166949513Y-121379165D02*
X167001526Y-121412328D01*
X167001526Y-121412328D02*
X167065275Y-121454291D01*
X167065275Y-121454291D02*
X167135940Y-121501943D01*
X167135940Y-121501943D02*
X167207884Y-121550191D01*
X167207884Y-121550191D02*
X167272726Y-121592151D01*
X167272726Y-121592151D02*
X167326265Y-121625227D01*
X167326265Y-121625227D02*
X167364303Y-121646821D01*
X167364303Y-121646821D02*
X167382467Y-121654343D01*
X167382467Y-121654343D02*
X167399192Y-121644457D01*
X167399192Y-121644457D02*
X167432820Y-121616826D01*
X167432820Y-121616826D02*
X167479990Y-121574495D01*
X167479990Y-121574495D02*
X167537342Y-121520505D01*
X167537342Y-121520505D02*
X167601516Y-121457899D01*
X167601516Y-121457899D02*
X167622503Y-121436983D01*
X167622503Y-121436983D02*
X167839501Y-121219623D01*
X167839501Y-121219623D02*
X167674332Y-120977220D01*
X167674332Y-120977220D02*
X167624136Y-120902781D01*
X167624136Y-120902781D02*
X167580081Y-120835972D01*
X167580081Y-120835972D02*
X167544638Y-120780665D01*
X167544638Y-120780665D02*
X167520281Y-120740729D01*
X167520281Y-120740729D02*
X167509478Y-120720036D01*
X167509478Y-120720036D02*
X167509162Y-120718563D01*
X167509162Y-120718563D02*
X167514857Y-120699058D01*
X167514857Y-120699058D02*
X167530174Y-120659822D01*
X167530174Y-120659822D02*
X167552463Y-120607430D01*
X167552463Y-120607430D02*
X167568107Y-120572355D01*
X167568107Y-120572355D02*
X167597359Y-120505201D01*
X167597359Y-120505201D02*
X167624906Y-120437358D01*
X167624906Y-120437358D02*
X167646263Y-120380034D01*
X167646263Y-120380034D02*
X167652065Y-120362572D01*
X167652065Y-120362572D02*
X167668548Y-120315938D01*
X167668548Y-120315938D02*
X167684660Y-120279905D01*
X167684660Y-120279905D02*
X167693510Y-120266287D01*
X167693510Y-120266287D02*
X167713040Y-120257952D01*
X167713040Y-120257952D02*
X167755666Y-120246137D01*
X167755666Y-120246137D02*
X167815855Y-120232181D01*
X167815855Y-120232181D02*
X167888078Y-120217422D01*
X167888078Y-120217422D02*
X167920400Y-120211355D01*
X167920400Y-120211355D02*
X168002478Y-120196273D01*
X168002478Y-120196273D02*
X168081205Y-120181669D01*
X168081205Y-120181669D02*
X168148891Y-120168980D01*
X168148891Y-120168980D02*
X168197840Y-120159642D01*
X168197840Y-120159642D02*
X168207057Y-120157839D01*
X168207057Y-120157839D02*
X168283257Y-120142799D01*
X168283257Y-120142799D02*
X168283257Y-119825492D01*
X168283257Y-119825492D02*
X168283086Y-119721154D01*
X168283086Y-119721154D02*
X168282384Y-119642213D01*
X168282384Y-119642213D02*
X168280866Y-119585038D01*
X168280866Y-119585038D02*
X168278251Y-119545999D01*
X168278251Y-119545999D02*
X168274254Y-119521465D01*
X168274254Y-119521465D02*
X168268591Y-119507805D01*
X168268591Y-119507805D02*
X168260980Y-119501389D01*
X168260980Y-119501389D02*
X168257857Y-119500199D01*
X168257857Y-119500199D02*
X168239022Y-119495980D01*
X168239022Y-119495980D02*
X168197412Y-119487562D01*
X168197412Y-119487562D02*
X168138370Y-119475961D01*
X168138370Y-119475961D02*
X168067243Y-119462195D01*
X168067243Y-119462195D02*
X167989375Y-119447280D01*
X167989375Y-119447280D02*
X167910113Y-119432232D01*
X167910113Y-119432232D02*
X167834802Y-119418069D01*
X167834802Y-119418069D02*
X167768787Y-119405806D01*
X167768787Y-119405806D02*
X167717413Y-119396461D01*
X167717413Y-119396461D02*
X167686025Y-119391050D01*
X167686025Y-119391050D02*
X167679041Y-119390114D01*
X167679041Y-119390114D02*
X167672715Y-119377596D01*
X167672715Y-119377596D02*
X167658710Y-119344246D01*
X167658710Y-119344246D02*
X167639645Y-119296377D01*
X167639645Y-119296377D02*
X167632366Y-119277629D01*
X167632366Y-119277629D02*
X167603004Y-119205195D01*
X167603004Y-119205195D02*
X167568429Y-119125170D01*
X167568429Y-119125170D02*
X167537463Y-119057728D01*
X167537463Y-119057728D02*
X167514677Y-119006159D01*
X167514677Y-119006159D02*
X167499518Y-118963785D01*
X167499518Y-118963785D02*
X167494458Y-118937834D01*
X167494458Y-118937834D02*
X167495264Y-118934356D01*
X167495264Y-118934356D02*
X167505959Y-118917936D01*
X167505959Y-118917936D02*
X167530380Y-118881417D01*
X167530380Y-118881417D02*
X167565905Y-118828687D01*
X167565905Y-118828687D02*
X167609913Y-118763635D01*
X167609913Y-118763635D02*
X167659783Y-118690151D01*
X167659783Y-118690151D02*
X167669644Y-118675645D01*
X167669644Y-118675645D02*
X167727508Y-118589704D01*
X167727508Y-118589704D02*
X167770044Y-118524261D01*
X167770044Y-118524261D02*
X167798946Y-118476304D01*
X167798946Y-118476304D02*
X167815910Y-118442820D01*
X167815910Y-118442820D02*
X167822633Y-118420795D01*
X167822633Y-118420795D02*
X167820810Y-118407217D01*
X167820810Y-118407217D02*
X167820764Y-118407131D01*
X167820764Y-118407131D02*
X167806414Y-118389297D01*
X167806414Y-118389297D02*
X167774677Y-118354817D01*
X167774677Y-118354817D02*
X167728990Y-118307268D01*
X167728990Y-118307268D02*
X167672796Y-118250222D01*
X167672796Y-118250222D02*
X167609532Y-118187255D01*
X167609532Y-118187255D02*
X167602398Y-118180227D01*
X167602398Y-118180227D02*
X167522670Y-118103020D01*
X167522670Y-118103020D02*
X167461143Y-118046330D01*
X167461143Y-118046330D02*
X167416579Y-118009110D01*
X167416579Y-118009110D02*
X167387743Y-117990315D01*
X167387743Y-117990315D02*
X167375042Y-117987889D01*
X167375042Y-117987889D02*
X167356506Y-117998471D01*
X167356506Y-117998471D02*
X167318039Y-118022916D01*
X167318039Y-118022916D02*
X167263614Y-118058612D01*
X167263614Y-118058612D02*
X167197202Y-118102947D01*
X167197202Y-118102947D02*
X167122775Y-118153311D01*
X167122775Y-118153311D02*
X167105399Y-118165160D01*
X167105399Y-118165160D02*
X166858703Y-118333626D01*
X166858703Y-118333626D02*
X166747294Y-118283062D01*
X166747294Y-118283062D02*
X166679543Y-118253595D01*
X166679543Y-118253595D02*
X166606817Y-118223959D01*
X166606817Y-118223959D02*
X166544297Y-118200330D01*
X166544297Y-118200330D02*
X166541543Y-118199358D01*
X166541543Y-118199358D02*
X166492640Y-118181457D01*
X166492640Y-118181457D02*
X166454943Y-118166320D01*
X166454943Y-118166320D02*
X166436575Y-118157210D01*
X166436575Y-118157210D02*
X166436544Y-118157184D01*
X166436544Y-118157184D02*
X166430715Y-118140717D01*
X166430715Y-118140717D02*
X166420808Y-118100219D01*
X166420808Y-118100219D02*
X166407805Y-118040242D01*
X166407805Y-118040242D02*
X166392691Y-117965340D01*
X166392691Y-117965340D02*
X166376448Y-117880064D01*
X166376448Y-117880064D02*
X166375119Y-117872875D01*
X166375119Y-117872875D02*
X166358825Y-117785014D01*
X166358825Y-117785014D02*
X166343867Y-117705260D01*
X166343867Y-117705260D02*
X166331209Y-117638681D01*
X166331209Y-117638681D02*
X166321814Y-117590347D01*
X166321814Y-117590347D02*
X166316646Y-117565325D01*
X166316646Y-117565325D02*
X166316556Y-117564943D01*
X166316556Y-117564943D02*
X166313411Y-117554299D01*
X166313411Y-117554299D02*
X166307296Y-117546262D01*
X166307296Y-117546262D02*
X166294547Y-117540467D01*
X166294547Y-117540467D02*
X166271500Y-117536547D01*
X166271500Y-117536547D02*
X166234491Y-117534135D01*
X166234491Y-117534135D02*
X166179856Y-117532865D01*
X166179856Y-117532865D02*
X166103933Y-117532371D01*
X166103933Y-117532371D02*
X166003056Y-117532286D01*
X166003056Y-117532286D02*
X165990000Y-117532286D01*
X165990000Y-117532286D02*
X165886090Y-117532348D01*
X165886090Y-117532348D02*
X165886090Y-117532348D01*
G36*
X166103933Y-117532371D02*
G01*
X166179856Y-117532865D01*
X166234491Y-117534135D01*
X166271500Y-117536547D01*
X166294547Y-117540467D01*
X166307296Y-117546262D01*
X166313411Y-117554299D01*
X166316556Y-117564943D01*
X166316646Y-117565325D01*
X166321814Y-117590347D01*
X166331209Y-117638681D01*
X166343867Y-117705260D01*
X166358825Y-117785014D01*
X166375119Y-117872875D01*
X166376448Y-117880064D01*
X166392691Y-117965340D01*
X166407805Y-118040242D01*
X166420808Y-118100219D01*
X166430715Y-118140717D01*
X166436544Y-118157184D01*
X166436575Y-118157210D01*
X166454943Y-118166320D01*
X166492640Y-118181457D01*
X166541543Y-118199358D01*
X166544297Y-118200330D01*
X166606817Y-118223959D01*
X166679543Y-118253595D01*
X166747294Y-118283062D01*
X166858703Y-118333626D01*
X167105399Y-118165160D01*
X167122775Y-118153311D01*
X167197202Y-118102947D01*
X167263614Y-118058612D01*
X167318039Y-118022916D01*
X167356506Y-117998471D01*
X167375042Y-117987889D01*
X167387743Y-117990315D01*
X167416579Y-118009110D01*
X167461143Y-118046330D01*
X167522670Y-118103020D01*
X167602398Y-118180227D01*
X167609532Y-118187255D01*
X167672796Y-118250222D01*
X167728990Y-118307268D01*
X167774677Y-118354817D01*
X167806414Y-118389297D01*
X167820764Y-118407131D01*
X167820810Y-118407217D01*
X167822633Y-118420795D01*
X167815910Y-118442820D01*
X167798946Y-118476304D01*
X167770044Y-118524261D01*
X167727508Y-118589704D01*
X167669644Y-118675645D01*
X167659783Y-118690151D01*
X167609913Y-118763635D01*
X167565905Y-118828687D01*
X167530380Y-118881417D01*
X167505959Y-118917936D01*
X167495264Y-118934356D01*
X167494458Y-118937834D01*
X167499518Y-118963785D01*
X167514677Y-119006159D01*
X167537463Y-119057728D01*
X167568429Y-119125170D01*
X167603004Y-119205195D01*
X167632366Y-119277629D01*
X167639645Y-119296377D01*
X167658710Y-119344246D01*
X167672715Y-119377596D01*
X167679041Y-119390114D01*
X167686025Y-119391050D01*
X167717413Y-119396461D01*
X167768787Y-119405806D01*
X167834802Y-119418069D01*
X167910113Y-119432232D01*
X167989375Y-119447280D01*
X168067243Y-119462195D01*
X168138370Y-119475961D01*
X168197412Y-119487562D01*
X168239022Y-119495980D01*
X168257857Y-119500199D01*
X168260980Y-119501389D01*
X168268591Y-119507805D01*
X168274254Y-119521465D01*
X168278251Y-119545999D01*
X168280866Y-119585038D01*
X168282384Y-119642213D01*
X168283086Y-119721154D01*
X168283257Y-119825492D01*
X168283257Y-120142799D01*
X168207057Y-120157839D01*
X168197840Y-120159642D01*
X168148891Y-120168980D01*
X168081205Y-120181669D01*
X168002478Y-120196273D01*
X167920400Y-120211355D01*
X167888078Y-120217422D01*
X167815855Y-120232181D01*
X167755666Y-120246137D01*
X167713040Y-120257952D01*
X167693510Y-120266287D01*
X167684660Y-120279905D01*
X167668548Y-120315938D01*
X167652065Y-120362572D01*
X167646263Y-120380034D01*
X167624906Y-120437358D01*
X167597359Y-120505201D01*
X167568107Y-120572355D01*
X167552463Y-120607430D01*
X167530174Y-120659822D01*
X167514857Y-120699058D01*
X167509162Y-120718563D01*
X167509478Y-120720036D01*
X167520281Y-120740729D01*
X167544638Y-120780665D01*
X167580081Y-120835972D01*
X167624136Y-120902781D01*
X167674332Y-120977220D01*
X167839501Y-121219623D01*
X167622503Y-121436983D01*
X167601516Y-121457899D01*
X167537342Y-121520505D01*
X167479990Y-121574495D01*
X167432820Y-121616826D01*
X167399192Y-121644457D01*
X167382467Y-121654343D01*
X167364303Y-121646821D01*
X167326265Y-121625227D01*
X167272726Y-121592151D01*
X167207884Y-121550191D01*
X167135940Y-121501943D01*
X167065275Y-121454291D01*
X167001526Y-121412328D01*
X166949513Y-121379165D01*
X166913279Y-121357378D01*
X166896867Y-121349543D01*
X166895905Y-121349614D01*
X166874103Y-121357338D01*
X166835440Y-121375323D01*
X166787612Y-121400013D01*
X166787110Y-121400284D01*
X166723587Y-121432099D01*
X166680060Y-121447642D01*
X166653052Y-121447685D01*
X166639090Y-121433000D01*
X166633180Y-121418544D01*
X166617229Y-121379831D01*
X166592660Y-121320316D01*
X166560779Y-121243165D01*
X166522893Y-121151541D01*
X166480310Y-121048607D01*
X166434337Y-120937526D01*
X166392667Y-120836472D01*
X166350268Y-120732780D01*
X166312756Y-120640119D01*
X166281388Y-120561642D01*
X166257425Y-120500500D01*
X166242123Y-120459843D01*
X166236743Y-120442825D01*
X166247018Y-120427219D01*
X166275563Y-120401162D01*
X166315971Y-120370887D01*
X166412979Y-120291684D01*
X166499793Y-120190475D01*
X166563322Y-120079116D01*
X166603177Y-119960893D01*
X166618965Y-119839095D01*
X166610296Y-119717010D01*
X166576778Y-119597925D01*
X166518021Y-119485129D01*
X166433632Y-119381911D01*
X166389631Y-119341713D01*
X166284211Y-119270638D01*
X166171410Y-119224301D01*
X166054525Y-119201599D01*
X165936853Y-119201428D01*
X165821690Y-119222687D01*
X165712335Y-119264270D01*
X165612083Y-119325076D01*
X165524233Y-119404001D01*
X165452080Y-119499941D01*
X165398922Y-119611795D01*
X165368057Y-119738457D01*
X165362392Y-119799507D01*
X165370185Y-119931776D01*
X165405284Y-120057266D01*
X165466649Y-120173759D01*
X165553243Y-120279039D01*
X165664029Y-120370887D01*
X165702931Y-120399930D01*
X165732104Y-120426272D01*
X165743257Y-120442800D01*
X165738810Y-120457209D01*
X165724378Y-120495815D01*
X165701173Y-120555201D01*
X165670452Y-120632215D01*
X165633474Y-120723703D01*
X165591496Y-120826516D01*
X165545778Y-120937502D01*
X165504178Y-121038072D01*
X165461222Y-121141947D01*
X165422829Y-121234819D01*
X165390305Y-121313525D01*
X165364958Y-121374899D01*
X165348095Y-121415779D01*
X165341025Y-121433000D01*
X165340943Y-121433204D01*
X165326798Y-121447745D01*
X165299659Y-121447579D01*
X165256023Y-121431927D01*
X165192388Y-121400013D01*
X165187379Y-121397326D01*
X165140125Y-121373150D01*
X165102811Y-121356037D01*
X165083133Y-121349543D01*
X165067005Y-121357218D01*
X165030959Y-121378871D01*
X164979092Y-121411928D01*
X164915445Y-121453810D01*
X164844060Y-121501943D01*
X164773724Y-121549131D01*
X164708670Y-121591267D01*
X164654820Y-121624578D01*
X164616374Y-121646469D01*
X164597534Y-121654343D01*
X164594325Y-121653343D01*
X164571954Y-121637584D01*
X164533733Y-121605033D01*
X164483021Y-121558733D01*
X164423181Y-121501726D01*
X164357571Y-121437058D01*
X164140648Y-121219772D01*
X164309601Y-120971253D01*
X164478553Y-120722733D01*
X164427183Y-120611595D01*
X164427031Y-120611266D01*
X164396183Y-120540418D01*
X164364661Y-120461523D01*
X164339266Y-120391600D01*
X164335423Y-120380322D01*
X164316047Y-120327967D01*
X164298574Y-120287283D01*
X164286388Y-120266287D01*
X164281426Y-120263322D01*
X164251634Y-120253375D01*
X164201047Y-120240505D01*
X164135194Y-120226053D01*
X164059600Y-120211355D01*
X164036957Y-120207210D01*
X163955038Y-120192116D01*
X163878600Y-120177899D01*
X163815337Y-120165995D01*
X163772943Y-120157839D01*
X163696743Y-120142799D01*
X163696743Y-119825492D01*
X163696760Y-119786476D01*
X163697082Y-119691292D01*
X163698033Y-119620255D01*
X163699896Y-119569734D01*
X163702955Y-119536098D01*
X163707494Y-119515718D01*
X163713795Y-119504962D01*
X163722143Y-119500199D01*
X163730224Y-119498270D01*
X163763172Y-119491445D01*
X163815736Y-119481022D01*
X163882569Y-119468018D01*
X163958328Y-119453449D01*
X164037665Y-119438333D01*
X164115237Y-119423685D01*
X164185698Y-119410523D01*
X164243702Y-119399863D01*
X164283904Y-119392721D01*
X164300959Y-119390114D01*
X164302112Y-119388541D01*
X164311385Y-119368119D01*
X164327432Y-119329045D01*
X164347635Y-119277629D01*
X164375672Y-119208353D01*
X164410186Y-119128290D01*
X164442538Y-119057728D01*
X164449952Y-119041889D01*
X164470755Y-118992293D01*
X164483219Y-118954038D01*
X164484863Y-118934356D01*
X164484015Y-118932962D01*
X164470548Y-118912420D01*
X164443850Y-118872516D01*
X164406539Y-118817140D01*
X164361234Y-118750177D01*
X164310552Y-118675517D01*
X164253445Y-118590692D01*
X164210607Y-118524800D01*
X164181460Y-118476478D01*
X164164317Y-118442733D01*
X164157495Y-118420572D01*
X164159306Y-118407002D01*
X164159915Y-118405984D01*
X164176297Y-118386210D01*
X164209695Y-118350175D01*
X164256671Y-118301451D01*
X164313786Y-118243612D01*
X164377603Y-118180227D01*
X164443802Y-118115905D01*
X164508648Y-118055447D01*
X164556299Y-118014655D01*
X164587990Y-117992484D01*
X164604958Y-117987889D01*
X164607175Y-117988921D01*
X164630524Y-118002837D01*
X164672912Y-118030030D01*
X164730369Y-118067889D01*
X164798923Y-118113803D01*
X164874601Y-118165160D01*
X165121298Y-118333626D01*
X165232706Y-118283062D01*
X165235943Y-118281597D01*
X165304343Y-118251965D01*
X165376907Y-118222493D01*
X165438457Y-118199358D01*
X165438729Y-118199262D01*
X165487595Y-118181367D01*
X165525212Y-118166253D01*
X165543457Y-118157184D01*
X165543752Y-118156855D01*
X165549946Y-118138282D01*
X165560139Y-118096045D01*
X165573348Y-118034696D01*
X165588590Y-117958789D01*
X165604881Y-117872875D01*
X165605449Y-117869796D01*
X165621713Y-117782128D01*
X165636608Y-117702741D01*
X165649171Y-117636701D01*
X165658438Y-117589079D01*
X165663444Y-117564943D01*
X165663764Y-117563605D01*
X165667060Y-117553273D01*
X165673738Y-117545506D01*
X165687462Y-117539940D01*
X165711895Y-117536207D01*
X165750702Y-117533942D01*
X165807546Y-117532778D01*
X165886090Y-117532348D01*
X165990000Y-117532286D01*
X166003056Y-117532286D01*
X166103933Y-117532371D01*
G37*
X166103933Y-117532371D02*
X166179856Y-117532865D01*
X166234491Y-117534135D01*
X166271500Y-117536547D01*
X166294547Y-117540467D01*
X166307296Y-117546262D01*
X166313411Y-117554299D01*
X166316556Y-117564943D01*
X166316646Y-117565325D01*
X166321814Y-117590347D01*
X166331209Y-117638681D01*
X166343867Y-117705260D01*
X166358825Y-117785014D01*
X166375119Y-117872875D01*
X166376448Y-117880064D01*
X166392691Y-117965340D01*
X166407805Y-118040242D01*
X166420808Y-118100219D01*
X166430715Y-118140717D01*
X166436544Y-118157184D01*
X166436575Y-118157210D01*
X166454943Y-118166320D01*
X166492640Y-118181457D01*
X166541543Y-118199358D01*
X166544297Y-118200330D01*
X166606817Y-118223959D01*
X166679543Y-118253595D01*
X166747294Y-118283062D01*
X166858703Y-118333626D01*
X167105399Y-118165160D01*
X167122775Y-118153311D01*
X167197202Y-118102947D01*
X167263614Y-118058612D01*
X167318039Y-118022916D01*
X167356506Y-117998471D01*
X167375042Y-117987889D01*
X167387743Y-117990315D01*
X167416579Y-118009110D01*
X167461143Y-118046330D01*
X167522670Y-118103020D01*
X167602398Y-118180227D01*
X167609532Y-118187255D01*
X167672796Y-118250222D01*
X167728990Y-118307268D01*
X167774677Y-118354817D01*
X167806414Y-118389297D01*
X167820764Y-118407131D01*
X167820810Y-118407217D01*
X167822633Y-118420795D01*
X167815910Y-118442820D01*
X167798946Y-118476304D01*
X167770044Y-118524261D01*
X167727508Y-118589704D01*
X167669644Y-118675645D01*
X167659783Y-118690151D01*
X167609913Y-118763635D01*
X167565905Y-118828687D01*
X167530380Y-118881417D01*
X167505959Y-118917936D01*
X167495264Y-118934356D01*
X167494458Y-118937834D01*
X167499518Y-118963785D01*
X167514677Y-119006159D01*
X167537463Y-119057728D01*
X167568429Y-119125170D01*
X167603004Y-119205195D01*
X167632366Y-119277629D01*
X167639645Y-119296377D01*
X167658710Y-119344246D01*
X167672715Y-119377596D01*
X167679041Y-119390114D01*
X167686025Y-119391050D01*
X167717413Y-119396461D01*
X167768787Y-119405806D01*
X167834802Y-119418069D01*
X167910113Y-119432232D01*
X167989375Y-119447280D01*
X168067243Y-119462195D01*
X168138370Y-119475961D01*
X168197412Y-119487562D01*
X168239022Y-119495980D01*
X168257857Y-119500199D01*
X168260980Y-119501389D01*
X168268591Y-119507805D01*
X168274254Y-119521465D01*
X168278251Y-119545999D01*
X168280866Y-119585038D01*
X168282384Y-119642213D01*
X168283086Y-119721154D01*
X168283257Y-119825492D01*
X168283257Y-120142799D01*
X168207057Y-120157839D01*
X168197840Y-120159642D01*
X168148891Y-120168980D01*
X168081205Y-120181669D01*
X168002478Y-120196273D01*
X167920400Y-120211355D01*
X167888078Y-120217422D01*
X167815855Y-120232181D01*
X167755666Y-120246137D01*
X167713040Y-120257952D01*
X167693510Y-120266287D01*
X167684660Y-120279905D01*
X167668548Y-120315938D01*
X167652065Y-120362572D01*
X167646263Y-120380034D01*
X167624906Y-120437358D01*
X167597359Y-120505201D01*
X167568107Y-120572355D01*
X167552463Y-120607430D01*
X167530174Y-120659822D01*
X167514857Y-120699058D01*
X167509162Y-120718563D01*
X167509478Y-120720036D01*
X167520281Y-120740729D01*
X167544638Y-120780665D01*
X167580081Y-120835972D01*
X167624136Y-120902781D01*
X167674332Y-120977220D01*
X167839501Y-121219623D01*
X167622503Y-121436983D01*
X167601516Y-121457899D01*
X167537342Y-121520505D01*
X167479990Y-121574495D01*
X167432820Y-121616826D01*
X167399192Y-121644457D01*
X167382467Y-121654343D01*
X167364303Y-121646821D01*
X167326265Y-121625227D01*
X167272726Y-121592151D01*
X167207884Y-121550191D01*
X167135940Y-121501943D01*
X167065275Y-121454291D01*
X167001526Y-121412328D01*
X166949513Y-121379165D01*
X166913279Y-121357378D01*
X166896867Y-121349543D01*
X166895905Y-121349614D01*
X166874103Y-121357338D01*
X166835440Y-121375323D01*
X166787612Y-121400013D01*
X166787110Y-121400284D01*
X166723587Y-121432099D01*
X166680060Y-121447642D01*
X166653052Y-121447685D01*
X166639090Y-121433000D01*
X166633180Y-121418544D01*
X166617229Y-121379831D01*
X166592660Y-121320316D01*
X166560779Y-121243165D01*
X166522893Y-121151541D01*
X166480310Y-121048607D01*
X166434337Y-120937526D01*
X166392667Y-120836472D01*
X166350268Y-120732780D01*
X166312756Y-120640119D01*
X166281388Y-120561642D01*
X166257425Y-120500500D01*
X166242123Y-120459843D01*
X166236743Y-120442825D01*
X166247018Y-120427219D01*
X166275563Y-120401162D01*
X166315971Y-120370887D01*
X166412979Y-120291684D01*
X166499793Y-120190475D01*
X166563322Y-120079116D01*
X166603177Y-119960893D01*
X166618965Y-119839095D01*
X166610296Y-119717010D01*
X166576778Y-119597925D01*
X166518021Y-119485129D01*
X166433632Y-119381911D01*
X166389631Y-119341713D01*
X166284211Y-119270638D01*
X166171410Y-119224301D01*
X166054525Y-119201599D01*
X165936853Y-119201428D01*
X165821690Y-119222687D01*
X165712335Y-119264270D01*
X165612083Y-119325076D01*
X165524233Y-119404001D01*
X165452080Y-119499941D01*
X165398922Y-119611795D01*
X165368057Y-119738457D01*
X165362392Y-119799507D01*
X165370185Y-119931776D01*
X165405284Y-120057266D01*
X165466649Y-120173759D01*
X165553243Y-120279039D01*
X165664029Y-120370887D01*
X165702931Y-120399930D01*
X165732104Y-120426272D01*
X165743257Y-120442800D01*
X165738810Y-120457209D01*
X165724378Y-120495815D01*
X165701173Y-120555201D01*
X165670452Y-120632215D01*
X165633474Y-120723703D01*
X165591496Y-120826516D01*
X165545778Y-120937502D01*
X165504178Y-121038072D01*
X165461222Y-121141947D01*
X165422829Y-121234819D01*
X165390305Y-121313525D01*
X165364958Y-121374899D01*
X165348095Y-121415779D01*
X165341025Y-121433000D01*
X165340943Y-121433204D01*
X165326798Y-121447745D01*
X165299659Y-121447579D01*
X165256023Y-121431927D01*
X165192388Y-121400013D01*
X165187379Y-121397326D01*
X165140125Y-121373150D01*
X165102811Y-121356037D01*
X165083133Y-121349543D01*
X165067005Y-121357218D01*
X165030959Y-121378871D01*
X164979092Y-121411928D01*
X164915445Y-121453810D01*
X164844060Y-121501943D01*
X164773724Y-121549131D01*
X164708670Y-121591267D01*
X164654820Y-121624578D01*
X164616374Y-121646469D01*
X164597534Y-121654343D01*
X164594325Y-121653343D01*
X164571954Y-121637584D01*
X164533733Y-121605033D01*
X164483021Y-121558733D01*
X164423181Y-121501726D01*
X164357571Y-121437058D01*
X164140648Y-121219772D01*
X164309601Y-120971253D01*
X164478553Y-120722733D01*
X164427183Y-120611595D01*
X164427031Y-120611266D01*
X164396183Y-120540418D01*
X164364661Y-120461523D01*
X164339266Y-120391600D01*
X164335423Y-120380322D01*
X164316047Y-120327967D01*
X164298574Y-120287283D01*
X164286388Y-120266287D01*
X164281426Y-120263322D01*
X164251634Y-120253375D01*
X164201047Y-120240505D01*
X164135194Y-120226053D01*
X164059600Y-120211355D01*
X164036957Y-120207210D01*
X163955038Y-120192116D01*
X163878600Y-120177899D01*
X163815337Y-120165995D01*
X163772943Y-120157839D01*
X163696743Y-120142799D01*
X163696743Y-119825492D01*
X163696760Y-119786476D01*
X163697082Y-119691292D01*
X163698033Y-119620255D01*
X163699896Y-119569734D01*
X163702955Y-119536098D01*
X163707494Y-119515718D01*
X163713795Y-119504962D01*
X163722143Y-119500199D01*
X163730224Y-119498270D01*
X163763172Y-119491445D01*
X163815736Y-119481022D01*
X163882569Y-119468018D01*
X163958328Y-119453449D01*
X164037665Y-119438333D01*
X164115237Y-119423685D01*
X164185698Y-119410523D01*
X164243702Y-119399863D01*
X164283904Y-119392721D01*
X164300959Y-119390114D01*
X164302112Y-119388541D01*
X164311385Y-119368119D01*
X164327432Y-119329045D01*
X164347635Y-119277629D01*
X164375672Y-119208353D01*
X164410186Y-119128290D01*
X164442538Y-119057728D01*
X164449952Y-119041889D01*
X164470755Y-118992293D01*
X164483219Y-118954038D01*
X164484863Y-118934356D01*
X164484015Y-118932962D01*
X164470548Y-118912420D01*
X164443850Y-118872516D01*
X164406539Y-118817140D01*
X164361234Y-118750177D01*
X164310552Y-118675517D01*
X164253445Y-118590692D01*
X164210607Y-118524800D01*
X164181460Y-118476478D01*
X164164317Y-118442733D01*
X164157495Y-118420572D01*
X164159306Y-118407002D01*
X164159915Y-118405984D01*
X164176297Y-118386210D01*
X164209695Y-118350175D01*
X164256671Y-118301451D01*
X164313786Y-118243612D01*
X164377603Y-118180227D01*
X164443802Y-118115905D01*
X164508648Y-118055447D01*
X164556299Y-118014655D01*
X164587990Y-117992484D01*
X164604958Y-117987889D01*
X164607175Y-117988921D01*
X164630524Y-118002837D01*
X164672912Y-118030030D01*
X164730369Y-118067889D01*
X164798923Y-118113803D01*
X164874601Y-118165160D01*
X165121298Y-118333626D01*
X165232706Y-118283062D01*
X165235943Y-118281597D01*
X165304343Y-118251965D01*
X165376907Y-118222493D01*
X165438457Y-118199358D01*
X165438729Y-118199262D01*
X165487595Y-118181367D01*
X165525212Y-118166253D01*
X165543457Y-118157184D01*
X165543752Y-118156855D01*
X165549946Y-118138282D01*
X165560139Y-118096045D01*
X165573348Y-118034696D01*
X165588590Y-117958789D01*
X165604881Y-117872875D01*
X165605449Y-117869796D01*
X165621713Y-117782128D01*
X165636608Y-117702741D01*
X165649171Y-117636701D01*
X165658438Y-117589079D01*
X165663444Y-117564943D01*
X165663764Y-117563605D01*
X165667060Y-117553273D01*
X165673738Y-117545506D01*
X165687462Y-117539940D01*
X165711895Y-117536207D01*
X165750702Y-117533942D01*
X165807546Y-117532778D01*
X165886090Y-117532348D01*
X165990000Y-117532286D01*
X166003056Y-117532286D01*
X166103933Y-117532371D01*
%LPC*%
D15*
X176359260Y-95848163D03*
X172458940Y-101418397D03*
D16*
X175227827Y-102258495D03*
X176661768Y-100210615D03*
X178095709Y-98162735D03*
D17*
X168976360Y-114345720D03*
D18*
X180426360Y-114345720D03*
D17*
X191876360Y-114345720D03*
M02*
