G04 #@! TF.GenerationSoftware,KiCad,Pcbnew,(6.0.0)*
G04 #@! TF.CreationDate,2022-10-06T13:38:40+02:00*
G04 #@! TF.ProjectId,2.0,322e302e-6b69-4636-9164-5f7063625858,rev?*
G04 #@! TF.SameCoordinates,Original*
G04 #@! TF.FileFunction,Soldermask,Top*
G04 #@! TF.FilePolarity,Negative*
%FSLAX46Y46*%
G04 Gerber Fmt 4.6, Leading zero omitted, Abs format (unit mm)*
G04 Created by KiCad (PCBNEW (6.0.0)) date 2022-10-06 13:38:40*
%MOMM*%
%LPD*%
G01*
G04 APERTURE LIST*
G04 Aperture macros list*
%AMRoundRect*
0 Rectangle with rounded corners*
0 $1 Rounding radius*
0 $2 $3 $4 $5 $6 $7 $8 $9 X,Y pos of 4 corners*
0 Add a 4 corners polygon primitive as box body*
4,1,4,$2,$3,$4,$5,$6,$7,$8,$9,$2,$3,0*
0 Add four circle primitives for the rounded corners*
1,1,$1+$1,$2,$3*
1,1,$1+$1,$4,$5*
1,1,$1+$1,$6,$7*
1,1,$1+$1,$8,$9*
0 Add four rect primitives between the rounded corners*
20,1,$1+$1,$2,$3,$4,$5,0*
20,1,$1+$1,$4,$5,$6,$7,0*
20,1,$1+$1,$6,$7,$8,$9,0*
20,1,$1+$1,$8,$9,$2,$3,0*%
G04 Aperture macros list end*
%ADD10C,0.100000*%
%ADD11C,0.200000*%
%ADD12RoundRect,0.300800X-0.325000X-0.450000X0.325000X-0.450000X0.325000X0.450000X-0.325000X0.450000X0*%
%ADD13RoundRect,0.300800X-0.350000X-0.450000X0.350000X-0.450000X0.350000X0.450000X-0.350000X0.450000X0*%
%ADD14C,1.001600*%
G04 APERTURE END LIST*
D10*
X176918620Y-102961440D02*
X176946560Y-102608380D01*
X176946560Y-102608380D02*
X177756820Y-102882700D01*
X177756820Y-102882700D02*
X178216560Y-103136700D01*
X178216560Y-103136700D02*
X178315620Y-103644700D01*
X178315620Y-103644700D02*
X178145440Y-104371140D01*
X178145440Y-104371140D02*
X177835560Y-104795320D01*
X177835560Y-104795320D02*
X177248820Y-104985820D01*
X177248820Y-104985820D02*
X176331880Y-104625140D01*
X176331880Y-104625140D02*
X175945800Y-103822500D01*
X175945800Y-103822500D02*
X176169320Y-103187500D01*
X176169320Y-103187500D02*
X176458880Y-102989380D01*
X176458880Y-102989380D02*
X176522380Y-103482140D01*
X176522380Y-103482140D02*
X176784000Y-103632000D01*
X176784000Y-103632000D02*
X177165000Y-103378000D01*
X177165000Y-103378000D02*
X177109120Y-103068120D01*
X177109120Y-103068120D02*
X176847500Y-102989380D01*
X176847500Y-102989380D02*
X176926240Y-102600760D01*
X176926240Y-102600760D02*
X176918620Y-102961440D01*
G36*
X176918620Y-102961440D02*
G01*
X176946560Y-102608380D01*
X177756820Y-102882700D01*
X178216560Y-103136700D01*
X178315620Y-103644700D01*
X178145440Y-104371140D01*
X177835560Y-104795320D01*
X177248820Y-104985820D01*
X176331880Y-104625140D01*
X175945800Y-103822500D01*
X176169320Y-103187500D01*
X176458880Y-102989380D01*
X176522380Y-103482140D01*
X176784000Y-103632000D01*
X177165000Y-103378000D01*
X177109120Y-103068120D01*
X176847500Y-102989380D01*
X176926240Y-102600760D01*
X176918620Y-102961440D01*
G37*
X176918620Y-102961440D02*
X176946560Y-102608380D01*
X177756820Y-102882700D01*
X178216560Y-103136700D01*
X178315620Y-103644700D01*
X178145440Y-104371140D01*
X177835560Y-104795320D01*
X177248820Y-104985820D01*
X176331880Y-104625140D01*
X175945800Y-103822500D01*
X176169320Y-103187500D01*
X176458880Y-102989380D01*
X176522380Y-103482140D01*
X176784000Y-103632000D01*
X177165000Y-103378000D01*
X177109120Y-103068120D01*
X176847500Y-102989380D01*
X176926240Y-102600760D01*
X176918620Y-102961440D01*
X178262280Y-115384580D02*
X178290220Y-115031520D01*
X178290220Y-115031520D02*
X179100480Y-115305840D01*
X179100480Y-115305840D02*
X179560220Y-115559840D01*
X179560220Y-115559840D02*
X179659280Y-116067840D01*
X179659280Y-116067840D02*
X179489100Y-116794280D01*
X179489100Y-116794280D02*
X179179220Y-117218460D01*
X179179220Y-117218460D02*
X178592480Y-117408960D01*
X178592480Y-117408960D02*
X177675540Y-117048280D01*
X177675540Y-117048280D02*
X177289460Y-116245640D01*
X177289460Y-116245640D02*
X177512980Y-115610640D01*
X177512980Y-115610640D02*
X177802540Y-115412520D01*
X177802540Y-115412520D02*
X177866040Y-115905280D01*
X177866040Y-115905280D02*
X178127660Y-116055140D01*
X178127660Y-116055140D02*
X178508660Y-115801140D01*
X178508660Y-115801140D02*
X178452780Y-115491260D01*
X178452780Y-115491260D02*
X178191160Y-115412520D01*
X178191160Y-115412520D02*
X178269900Y-115023900D01*
X178269900Y-115023900D02*
X178262280Y-115384580D01*
G36*
X178262280Y-115384580D02*
G01*
X178290220Y-115031520D01*
X179100480Y-115305840D01*
X179560220Y-115559840D01*
X179659280Y-116067840D01*
X179489100Y-116794280D01*
X179179220Y-117218460D01*
X178592480Y-117408960D01*
X177675540Y-117048280D01*
X177289460Y-116245640D01*
X177512980Y-115610640D01*
X177802540Y-115412520D01*
X177866040Y-115905280D01*
X178127660Y-116055140D01*
X178508660Y-115801140D01*
X178452780Y-115491260D01*
X178191160Y-115412520D01*
X178269900Y-115023900D01*
X178262280Y-115384580D01*
G37*
X178262280Y-115384580D02*
X178290220Y-115031520D01*
X179100480Y-115305840D01*
X179560220Y-115559840D01*
X179659280Y-116067840D01*
X179489100Y-116794280D01*
X179179220Y-117218460D01*
X178592480Y-117408960D01*
X177675540Y-117048280D01*
X177289460Y-116245640D01*
X177512980Y-115610640D01*
X177802540Y-115412520D01*
X177866040Y-115905280D01*
X178127660Y-116055140D01*
X178508660Y-115801140D01*
X178452780Y-115491260D01*
X178191160Y-115412520D01*
X178269900Y-115023900D01*
X178262280Y-115384580D01*
X182900000Y-108600000D02*
X183180000Y-108690000D01*
X183180000Y-108690000D02*
X183580000Y-108890000D01*
X183580000Y-108890000D02*
X183730000Y-109170000D01*
X183730000Y-109170000D02*
X183820000Y-109550000D01*
X183820000Y-109550000D02*
X183770000Y-109930000D01*
X183770000Y-109930000D02*
X183630000Y-110290000D01*
X183630000Y-110290000D02*
X183260000Y-110590000D01*
X183260000Y-110590000D02*
X182820000Y-110710000D01*
X182820000Y-110710000D02*
X182360000Y-110650000D01*
X182360000Y-110650000D02*
X181960000Y-110380000D01*
X181960000Y-110380000D02*
X181710000Y-109870000D01*
X181710000Y-109870000D02*
X181700000Y-109450000D01*
X181700000Y-109450000D02*
X181840000Y-109090000D01*
X181840000Y-109090000D02*
X182010000Y-109200000D01*
X182010000Y-109200000D02*
X182210000Y-109430000D01*
X182210000Y-109430000D02*
X182500000Y-109350000D01*
X182500000Y-109350000D02*
X182750000Y-109080000D01*
X182750000Y-109080000D02*
X182520000Y-108890000D01*
X182520000Y-108890000D02*
X182210000Y-108810000D01*
X182210000Y-108810000D02*
X182380000Y-108640000D01*
X182380000Y-108640000D02*
X182580000Y-108560000D01*
X182580000Y-108560000D02*
X182900000Y-108600000D01*
G36*
X182900000Y-108600000D02*
G01*
X183180000Y-108690000D01*
X183580000Y-108890000D01*
X183730000Y-109170000D01*
X183820000Y-109550000D01*
X183770000Y-109930000D01*
X183630000Y-110290000D01*
X183260000Y-110590000D01*
X182820000Y-110710000D01*
X182360000Y-110650000D01*
X181960000Y-110380000D01*
X181710000Y-109870000D01*
X181700000Y-109450000D01*
X181840000Y-109090000D01*
X182010000Y-109200000D01*
X182210000Y-109430000D01*
X182500000Y-109350000D01*
X182750000Y-109080000D01*
X182520000Y-108890000D01*
X182210000Y-108810000D01*
X182380000Y-108640000D01*
X182580000Y-108560000D01*
X182900000Y-108600000D01*
G37*
X182900000Y-108600000D02*
X183180000Y-108690000D01*
X183580000Y-108890000D01*
X183730000Y-109170000D01*
X183820000Y-109550000D01*
X183770000Y-109930000D01*
X183630000Y-110290000D01*
X183260000Y-110590000D01*
X182820000Y-110710000D01*
X182360000Y-110650000D01*
X181960000Y-110380000D01*
X181710000Y-109870000D01*
X181700000Y-109450000D01*
X181840000Y-109090000D01*
X182010000Y-109200000D01*
X182210000Y-109430000D01*
X182500000Y-109350000D01*
X182750000Y-109080000D01*
X182520000Y-108890000D01*
X182210000Y-108810000D01*
X182380000Y-108640000D01*
X182580000Y-108560000D01*
X182900000Y-108600000D01*
D11*
X170330000Y-115150000D02*
X170780000Y-115410000D01*
X170780000Y-115410000D02*
X171060000Y-115770000D01*
X171060000Y-115770000D02*
X171130000Y-116300000D01*
X171130000Y-116300000D02*
X171030000Y-116780000D01*
X171030000Y-116780000D02*
X170780000Y-117240000D01*
X170780000Y-117240000D02*
X170440000Y-117560000D01*
X170440000Y-117560000D02*
X169920000Y-117660000D01*
X169920000Y-117660000D02*
X169350000Y-117620000D01*
X169350000Y-117620000D02*
X168750000Y-117240000D01*
X168750000Y-117240000D02*
X168470000Y-116750000D01*
X168470000Y-116750000D02*
X168550000Y-115730000D01*
X168550000Y-115730000D02*
X168940000Y-115460000D01*
X168940000Y-115460000D02*
X168850000Y-115780000D01*
X168850000Y-115780000D02*
X168940000Y-116040000D01*
X168940000Y-116040000D02*
X169210000Y-116160000D01*
X169210000Y-116160000D02*
X169540000Y-116010000D01*
X169540000Y-116010000D02*
X169700000Y-115600000D01*
X169700000Y-115600000D02*
X169600000Y-115310000D01*
X169600000Y-115310000D02*
X169150000Y-115260000D01*
X169150000Y-115260000D02*
X169250000Y-115030000D01*
X169250000Y-115030000D02*
X169620000Y-114990000D01*
X169620000Y-114990000D02*
X169990000Y-114990000D01*
X169990000Y-114990000D02*
X170330000Y-115150000D01*
G36*
X170330000Y-115150000D02*
G01*
X170780000Y-115410000D01*
X171060000Y-115770000D01*
X171130000Y-116300000D01*
X171030000Y-116780000D01*
X170780000Y-117240000D01*
X170440000Y-117560000D01*
X169920000Y-117660000D01*
X169350000Y-117620000D01*
X168750000Y-117240000D01*
X168470000Y-116750000D01*
X168550000Y-115730000D01*
X168940000Y-115460000D01*
X168850000Y-115780000D01*
X168940000Y-116040000D01*
X169210000Y-116160000D01*
X169540000Y-116010000D01*
X169700000Y-115600000D01*
X169600000Y-115310000D01*
X169150000Y-115260000D01*
X169250000Y-115030000D01*
X169620000Y-114990000D01*
X169990000Y-114990000D01*
X170330000Y-115150000D01*
G37*
X170330000Y-115150000D02*
X170780000Y-115410000D01*
X171060000Y-115770000D01*
X171130000Y-116300000D01*
X171030000Y-116780000D01*
X170780000Y-117240000D01*
X170440000Y-117560000D01*
X169920000Y-117660000D01*
X169350000Y-117620000D01*
X168750000Y-117240000D01*
X168470000Y-116750000D01*
X168550000Y-115730000D01*
X168940000Y-115460000D01*
X168850000Y-115780000D01*
X168940000Y-116040000D01*
X169210000Y-116160000D01*
X169540000Y-116010000D01*
X169700000Y-115600000D01*
X169600000Y-115310000D01*
X169150000Y-115260000D01*
X169250000Y-115030000D01*
X169620000Y-114990000D01*
X169990000Y-114990000D01*
X170330000Y-115150000D01*
D10*
X190581280Y-115328700D02*
X191195960Y-116100860D01*
X191195960Y-116100860D02*
X190863220Y-117317520D01*
X190863220Y-117317520D02*
X189829440Y-117749320D01*
X189829440Y-117749320D02*
X188734700Y-117477540D01*
X188734700Y-117477540D02*
X188371480Y-116944140D01*
X188371480Y-116944140D02*
X188361320Y-115829080D01*
X188361320Y-115829080D02*
X188633100Y-115580160D01*
X188633100Y-115580160D02*
X188864240Y-115740180D01*
X188864240Y-115740180D02*
X188633100Y-115638580D01*
X188633100Y-115638580D02*
X188823600Y-115740180D01*
X188823600Y-115740180D02*
X188955680Y-116222780D01*
X188955680Y-116222780D02*
X189456060Y-116090700D01*
X189456060Y-116090700D02*
X189577980Y-115590320D01*
X189577980Y-115590320D02*
X189125860Y-115387120D01*
X189125860Y-115387120D02*
X189095380Y-115036600D01*
X189095380Y-115036600D02*
X189859920Y-115016280D01*
X189859920Y-115016280D02*
X190581280Y-115328700D01*
G36*
X190581280Y-115328700D02*
G01*
X191195960Y-116100860D01*
X190863220Y-117317520D01*
X189829440Y-117749320D01*
X188734700Y-117477540D01*
X188371480Y-116944140D01*
X188361320Y-115829080D01*
X188633100Y-115580160D01*
X188864240Y-115740180D01*
X188633100Y-115638580D01*
X188823600Y-115740180D01*
X188955680Y-116222780D01*
X189456060Y-116090700D01*
X189577980Y-115590320D01*
X189125860Y-115387120D01*
X189095380Y-115036600D01*
X189859920Y-115016280D01*
X190581280Y-115328700D01*
G37*
X190581280Y-115328700D02*
X191195960Y-116100860D01*
X190863220Y-117317520D01*
X189829440Y-117749320D01*
X188734700Y-117477540D01*
X188371480Y-116944140D01*
X188361320Y-115829080D01*
X188633100Y-115580160D01*
X188864240Y-115740180D01*
X188633100Y-115638580D01*
X188823600Y-115740180D01*
X188955680Y-116222780D01*
X189456060Y-116090700D01*
X189577980Y-115590320D01*
X189125860Y-115387120D01*
X189095380Y-115036600D01*
X189859920Y-115016280D01*
X190581280Y-115328700D01*
D11*
X183120000Y-95360000D02*
X183560000Y-95770000D01*
X183560000Y-95770000D02*
X183780000Y-96320000D01*
X183780000Y-96320000D02*
X183730000Y-96760000D01*
X183730000Y-96760000D02*
X183510000Y-97140000D01*
X183510000Y-97140000D02*
X183140000Y-97420000D01*
X183140000Y-97420000D02*
X182580000Y-97510000D01*
X182580000Y-97510000D02*
X182200000Y-97380000D01*
X182200000Y-97380000D02*
X181810000Y-97060000D01*
X181810000Y-97060000D02*
X181600000Y-96450000D01*
X181600000Y-96450000D02*
X181660000Y-96070000D01*
X181660000Y-96070000D02*
X181830000Y-95850000D01*
X181830000Y-95850000D02*
X181970000Y-95900000D01*
X181970000Y-95900000D02*
X182090000Y-96190000D01*
X182090000Y-96190000D02*
X182430000Y-96170000D01*
X182430000Y-96170000D02*
X182660000Y-95930000D01*
X182660000Y-95930000D02*
X182660000Y-95710000D01*
X182660000Y-95710000D02*
X182370000Y-95620000D01*
X182370000Y-95620000D02*
X182280000Y-95470000D01*
X182280000Y-95470000D02*
X182710000Y-95300000D01*
X182710000Y-95300000D02*
X183120000Y-95360000D01*
G36*
X183120000Y-95360000D02*
G01*
X183560000Y-95770000D01*
X183780000Y-96320000D01*
X183730000Y-96760000D01*
X183510000Y-97140000D01*
X183140000Y-97420000D01*
X182580000Y-97510000D01*
X182200000Y-97380000D01*
X181810000Y-97060000D01*
X181600000Y-96450000D01*
X181660000Y-96070000D01*
X181830000Y-95850000D01*
X181970000Y-95900000D01*
X182090000Y-96190000D01*
X182430000Y-96170000D01*
X182660000Y-95930000D01*
X182660000Y-95710000D01*
X182370000Y-95620000D01*
X182280000Y-95470000D01*
X182710000Y-95300000D01*
X183120000Y-95360000D01*
G37*
X183120000Y-95360000D02*
X183560000Y-95770000D01*
X183780000Y-96320000D01*
X183730000Y-96760000D01*
X183510000Y-97140000D01*
X183140000Y-97420000D01*
X182580000Y-97510000D01*
X182200000Y-97380000D01*
X181810000Y-97060000D01*
X181600000Y-96450000D01*
X181660000Y-96070000D01*
X181830000Y-95850000D01*
X181970000Y-95900000D01*
X182090000Y-96190000D01*
X182430000Y-96170000D01*
X182660000Y-95930000D01*
X182660000Y-95710000D01*
X182370000Y-95620000D01*
X182280000Y-95470000D01*
X182710000Y-95300000D01*
X183120000Y-95360000D01*
D10*
X174176739Y-96214062D02*
X175074580Y-96410780D01*
X175074580Y-96410780D02*
X175539400Y-96898460D01*
X175539400Y-96898460D02*
X175602900Y-97602040D01*
X175602900Y-97602040D02*
X175280320Y-98229420D01*
X175280320Y-98229420D02*
X174419260Y-98478340D01*
X174419260Y-98478340D02*
X173697900Y-98181160D01*
X173697900Y-98181160D02*
X173423580Y-97475040D01*
X173423580Y-97475040D02*
X173410880Y-96672400D01*
X173410880Y-96672400D02*
X173824900Y-97053400D01*
X173824900Y-97053400D02*
X174264320Y-97073720D01*
X174264320Y-97073720D02*
X174495460Y-96756220D01*
X174495460Y-96756220D02*
X174439580Y-96550480D01*
X174439580Y-96550480D02*
X174153483Y-96482558D01*
X174153483Y-96482558D02*
X174150020Y-96522540D01*
X174150020Y-96522540D02*
X174152655Y-96482361D01*
X174152655Y-96482361D02*
X174086520Y-96466660D01*
X174086520Y-96466660D02*
X174169568Y-96224438D01*
X174169568Y-96224438D02*
X174170340Y-96212660D01*
X174170340Y-96212660D02*
X174173378Y-96213326D01*
X174173378Y-96213326D02*
X174177960Y-96199960D01*
X174177960Y-96199960D02*
X174176739Y-96214062D01*
G36*
X174176739Y-96214062D02*
G01*
X175074580Y-96410780D01*
X175539400Y-96898460D01*
X175602900Y-97602040D01*
X175280320Y-98229420D01*
X174419260Y-98478340D01*
X173697900Y-98181160D01*
X173423580Y-97475040D01*
X173410880Y-96672400D01*
X173824900Y-97053400D01*
X174264320Y-97073720D01*
X174495460Y-96756220D01*
X174439580Y-96550480D01*
X174153483Y-96482558D01*
X174150020Y-96522540D01*
X174152655Y-96482361D01*
X174086520Y-96466660D01*
X174169568Y-96224438D01*
X174170340Y-96212660D01*
X174173378Y-96213326D01*
X174177960Y-96199960D01*
X174176739Y-96214062D01*
G37*
X174176739Y-96214062D02*
X175074580Y-96410780D01*
X175539400Y-96898460D01*
X175602900Y-97602040D01*
X175280320Y-98229420D01*
X174419260Y-98478340D01*
X173697900Y-98181160D01*
X173423580Y-97475040D01*
X173410880Y-96672400D01*
X173824900Y-97053400D01*
X174264320Y-97073720D01*
X174495460Y-96756220D01*
X174439580Y-96550480D01*
X174153483Y-96482558D01*
X174150020Y-96522540D01*
X174152655Y-96482361D01*
X174086520Y-96466660D01*
X174169568Y-96224438D01*
X174170340Y-96212660D01*
X174173378Y-96213326D01*
X174177960Y-96199960D01*
X174176739Y-96214062D01*
X172140000Y-108730000D02*
X172420000Y-108820000D01*
X172420000Y-108820000D02*
X172820000Y-109020000D01*
X172820000Y-109020000D02*
X172970000Y-109300000D01*
X172970000Y-109300000D02*
X173060000Y-109680000D01*
X173060000Y-109680000D02*
X173010000Y-110060000D01*
X173010000Y-110060000D02*
X172870000Y-110420000D01*
X172870000Y-110420000D02*
X172500000Y-110720000D01*
X172500000Y-110720000D02*
X172060000Y-110840000D01*
X172060000Y-110840000D02*
X171600000Y-110780000D01*
X171600000Y-110780000D02*
X171200000Y-110510000D01*
X171200000Y-110510000D02*
X170950000Y-110000000D01*
X170950000Y-110000000D02*
X170940000Y-109580000D01*
X170940000Y-109580000D02*
X171080000Y-109220000D01*
X171080000Y-109220000D02*
X171250000Y-109330000D01*
X171250000Y-109330000D02*
X171450000Y-109560000D01*
X171450000Y-109560000D02*
X171740000Y-109480000D01*
X171740000Y-109480000D02*
X171990000Y-109210000D01*
X171990000Y-109210000D02*
X171760000Y-109020000D01*
X171760000Y-109020000D02*
X171450000Y-108940000D01*
X171450000Y-108940000D02*
X171620000Y-108770000D01*
X171620000Y-108770000D02*
X171820000Y-108690000D01*
X171820000Y-108690000D02*
X172140000Y-108730000D01*
G36*
X172140000Y-108730000D02*
G01*
X172420000Y-108820000D01*
X172820000Y-109020000D01*
X172970000Y-109300000D01*
X173060000Y-109680000D01*
X173010000Y-110060000D01*
X172870000Y-110420000D01*
X172500000Y-110720000D01*
X172060000Y-110840000D01*
X171600000Y-110780000D01*
X171200000Y-110510000D01*
X170950000Y-110000000D01*
X170940000Y-109580000D01*
X171080000Y-109220000D01*
X171250000Y-109330000D01*
X171450000Y-109560000D01*
X171740000Y-109480000D01*
X171990000Y-109210000D01*
X171760000Y-109020000D01*
X171450000Y-108940000D01*
X171620000Y-108770000D01*
X171820000Y-108690000D01*
X172140000Y-108730000D01*
G37*
X172140000Y-108730000D02*
X172420000Y-108820000D01*
X172820000Y-109020000D01*
X172970000Y-109300000D01*
X173060000Y-109680000D01*
X173010000Y-110060000D01*
X172870000Y-110420000D01*
X172500000Y-110720000D01*
X172060000Y-110840000D01*
X171600000Y-110780000D01*
X171200000Y-110510000D01*
X170950000Y-110000000D01*
X170940000Y-109580000D01*
X171080000Y-109220000D01*
X171250000Y-109330000D01*
X171450000Y-109560000D01*
X171740000Y-109480000D01*
X171990000Y-109210000D01*
X171760000Y-109020000D01*
X171450000Y-108940000D01*
X171620000Y-108770000D01*
X171820000Y-108690000D01*
X172140000Y-108730000D01*
X187284360Y-103012240D02*
X187441840Y-103065580D01*
X187441840Y-103065580D02*
X187596780Y-103151940D01*
X187596780Y-103151940D02*
X187764420Y-103284020D01*
X187764420Y-103284020D02*
X187929520Y-103459280D01*
X187929520Y-103459280D02*
X188048900Y-103624380D01*
X188048900Y-103624380D02*
X188135260Y-103814880D01*
X188135260Y-103814880D02*
X188165740Y-104030780D01*
X188165740Y-104030780D02*
X188168280Y-104198420D01*
X188168280Y-104198420D02*
X188165740Y-104383840D01*
X188165740Y-104383840D02*
X188150500Y-104500680D01*
X188150500Y-104500680D02*
X188094620Y-104719120D01*
X188094620Y-104719120D02*
X187987940Y-104899460D01*
X187987940Y-104899460D02*
X187822840Y-105049320D01*
X187822840Y-105049320D02*
X187624720Y-105234740D01*
X187624720Y-105234740D02*
X187579000Y-105280460D01*
X187579000Y-105280460D02*
X187485020Y-105336340D01*
X187485020Y-105336340D02*
X187360560Y-105394760D01*
X187360560Y-105394760D02*
X187213240Y-105437940D01*
X187213240Y-105437940D02*
X186999880Y-105455720D01*
X186999880Y-105455720D02*
X186900820Y-105453180D01*
X186900820Y-105453180D02*
X186766200Y-105448100D01*
X186766200Y-105448100D02*
X186639200Y-105432860D01*
X186639200Y-105432860D02*
X186433460Y-105361740D01*
X186433460Y-105361740D02*
X186286140Y-105277920D01*
X186286140Y-105277920D02*
X186118500Y-105150920D01*
X186118500Y-105150920D02*
X186037220Y-105074720D01*
X186037220Y-105074720D02*
X185935620Y-104955340D01*
X185935620Y-104955340D02*
X185897520Y-104894380D01*
X185897520Y-104894380D02*
X185869580Y-104848660D01*
X185869580Y-104848660D02*
X185844180Y-104808020D01*
X185844180Y-104808020D02*
X185823860Y-104772460D01*
X185823860Y-104772460D02*
X185801000Y-104714040D01*
X185801000Y-104714040D02*
X185737500Y-104541320D01*
X185737500Y-104541320D02*
X185707020Y-104376220D01*
X185707020Y-104376220D02*
X185696860Y-104140000D01*
X185696860Y-104140000D02*
X185712100Y-103969820D01*
X185712100Y-103969820D02*
X185755280Y-103817420D01*
X185755280Y-103817420D02*
X185834020Y-103644700D01*
X185834020Y-103644700D02*
X185912760Y-103525320D01*
X185912760Y-103525320D02*
X185996580Y-103601520D01*
X185996580Y-103601520D02*
X185994040Y-103596440D01*
X185994040Y-103596440D02*
X186321700Y-104002840D01*
X186321700Y-104002840D02*
X186695080Y-103924100D01*
X186695080Y-103924100D02*
X186865260Y-103535480D01*
X186865260Y-103535480D02*
X186819540Y-103207820D01*
X186819540Y-103207820D02*
X186367420Y-103052880D01*
X186367420Y-103052880D02*
X186789060Y-102974140D01*
X186789060Y-102974140D02*
X186989720Y-102971600D01*
X186989720Y-102971600D02*
X187284360Y-103012240D01*
G36*
X187284360Y-103012240D02*
G01*
X187441840Y-103065580D01*
X187596780Y-103151940D01*
X187764420Y-103284020D01*
X187929520Y-103459280D01*
X188048900Y-103624380D01*
X188135260Y-103814880D01*
X188165740Y-104030780D01*
X188168280Y-104198420D01*
X188165740Y-104383840D01*
X188150500Y-104500680D01*
X188094620Y-104719120D01*
X187987940Y-104899460D01*
X187822840Y-105049320D01*
X187624720Y-105234740D01*
X187579000Y-105280460D01*
X187485020Y-105336340D01*
X187360560Y-105394760D01*
X187213240Y-105437940D01*
X186999880Y-105455720D01*
X186900820Y-105453180D01*
X186766200Y-105448100D01*
X186639200Y-105432860D01*
X186433460Y-105361740D01*
X186286140Y-105277920D01*
X186118500Y-105150920D01*
X186037220Y-105074720D01*
X185935620Y-104955340D01*
X185897520Y-104894380D01*
X185869580Y-104848660D01*
X185844180Y-104808020D01*
X185823860Y-104772460D01*
X185801000Y-104714040D01*
X185737500Y-104541320D01*
X185707020Y-104376220D01*
X185696860Y-104140000D01*
X185712100Y-103969820D01*
X185755280Y-103817420D01*
X185834020Y-103644700D01*
X185912760Y-103525320D01*
X185996580Y-103601520D01*
X185994040Y-103596440D01*
X186321700Y-104002840D01*
X186695080Y-103924100D01*
X186865260Y-103535480D01*
X186819540Y-103207820D01*
X186367420Y-103052880D01*
X186789060Y-102974140D01*
X186989720Y-102971600D01*
X187284360Y-103012240D01*
G37*
X187284360Y-103012240D02*
X187441840Y-103065580D01*
X187596780Y-103151940D01*
X187764420Y-103284020D01*
X187929520Y-103459280D01*
X188048900Y-103624380D01*
X188135260Y-103814880D01*
X188165740Y-104030780D01*
X188168280Y-104198420D01*
X188165740Y-104383840D01*
X188150500Y-104500680D01*
X188094620Y-104719120D01*
X187987940Y-104899460D01*
X187822840Y-105049320D01*
X187624720Y-105234740D01*
X187579000Y-105280460D01*
X187485020Y-105336340D01*
X187360560Y-105394760D01*
X187213240Y-105437940D01*
X186999880Y-105455720D01*
X186900820Y-105453180D01*
X186766200Y-105448100D01*
X186639200Y-105432860D01*
X186433460Y-105361740D01*
X186286140Y-105277920D01*
X186118500Y-105150920D01*
X186037220Y-105074720D01*
X185935620Y-104955340D01*
X185897520Y-104894380D01*
X185869580Y-104848660D01*
X185844180Y-104808020D01*
X185823860Y-104772460D01*
X185801000Y-104714040D01*
X185737500Y-104541320D01*
X185707020Y-104376220D01*
X185696860Y-104140000D01*
X185712100Y-103969820D01*
X185755280Y-103817420D01*
X185834020Y-103644700D01*
X185912760Y-103525320D01*
X185996580Y-103601520D01*
X185994040Y-103596440D01*
X186321700Y-104002840D01*
X186695080Y-103924100D01*
X186865260Y-103535480D01*
X186819540Y-103207820D01*
X186367420Y-103052880D01*
X186789060Y-102974140D01*
X186989720Y-102971600D01*
X187284360Y-103012240D01*
X176918620Y-102961440D02*
X176946560Y-102608380D01*
X176946560Y-102608380D02*
X177756820Y-102882700D01*
X177756820Y-102882700D02*
X178216560Y-103136700D01*
X178216560Y-103136700D02*
X178315620Y-103644700D01*
X178315620Y-103644700D02*
X178145440Y-104371140D01*
X178145440Y-104371140D02*
X177835560Y-104795320D01*
X177835560Y-104795320D02*
X177248820Y-104985820D01*
X177248820Y-104985820D02*
X176331880Y-104625140D01*
X176331880Y-104625140D02*
X175945800Y-103822500D01*
X175945800Y-103822500D02*
X176169320Y-103187500D01*
X176169320Y-103187500D02*
X176458880Y-102989380D01*
X176458880Y-102989380D02*
X176522380Y-103482140D01*
X176522380Y-103482140D02*
X176784000Y-103632000D01*
X176784000Y-103632000D02*
X177165000Y-103378000D01*
X177165000Y-103378000D02*
X177109120Y-103068120D01*
X177109120Y-103068120D02*
X176847500Y-102989380D01*
X176847500Y-102989380D02*
X176926240Y-102600760D01*
X176926240Y-102600760D02*
X176918620Y-102961440D01*
G36*
X176918620Y-102961440D02*
G01*
X176946560Y-102608380D01*
X177756820Y-102882700D01*
X178216560Y-103136700D01*
X178315620Y-103644700D01*
X178145440Y-104371140D01*
X177835560Y-104795320D01*
X177248820Y-104985820D01*
X176331880Y-104625140D01*
X175945800Y-103822500D01*
X176169320Y-103187500D01*
X176458880Y-102989380D01*
X176522380Y-103482140D01*
X176784000Y-103632000D01*
X177165000Y-103378000D01*
X177109120Y-103068120D01*
X176847500Y-102989380D01*
X176926240Y-102600760D01*
X176918620Y-102961440D01*
G37*
X176918620Y-102961440D02*
X176946560Y-102608380D01*
X177756820Y-102882700D01*
X178216560Y-103136700D01*
X178315620Y-103644700D01*
X178145440Y-104371140D01*
X177835560Y-104795320D01*
X177248820Y-104985820D01*
X176331880Y-104625140D01*
X175945800Y-103822500D01*
X176169320Y-103187500D01*
X176458880Y-102989380D01*
X176522380Y-103482140D01*
X176784000Y-103632000D01*
X177165000Y-103378000D01*
X177109120Y-103068120D01*
X176847500Y-102989380D01*
X176926240Y-102600760D01*
X176918620Y-102961440D01*
X178262280Y-115384580D02*
X178290220Y-115031520D01*
X178290220Y-115031520D02*
X179100480Y-115305840D01*
X179100480Y-115305840D02*
X179560220Y-115559840D01*
X179560220Y-115559840D02*
X179659280Y-116067840D01*
X179659280Y-116067840D02*
X179489100Y-116794280D01*
X179489100Y-116794280D02*
X179179220Y-117218460D01*
X179179220Y-117218460D02*
X178592480Y-117408960D01*
X178592480Y-117408960D02*
X177675540Y-117048280D01*
X177675540Y-117048280D02*
X177289460Y-116245640D01*
X177289460Y-116245640D02*
X177512980Y-115610640D01*
X177512980Y-115610640D02*
X177802540Y-115412520D01*
X177802540Y-115412520D02*
X177866040Y-115905280D01*
X177866040Y-115905280D02*
X178127660Y-116055140D01*
X178127660Y-116055140D02*
X178508660Y-115801140D01*
X178508660Y-115801140D02*
X178452780Y-115491260D01*
X178452780Y-115491260D02*
X178191160Y-115412520D01*
X178191160Y-115412520D02*
X178269900Y-115023900D01*
X178269900Y-115023900D02*
X178262280Y-115384580D01*
G36*
X178262280Y-115384580D02*
G01*
X178290220Y-115031520D01*
X179100480Y-115305840D01*
X179560220Y-115559840D01*
X179659280Y-116067840D01*
X179489100Y-116794280D01*
X179179220Y-117218460D01*
X178592480Y-117408960D01*
X177675540Y-117048280D01*
X177289460Y-116245640D01*
X177512980Y-115610640D01*
X177802540Y-115412520D01*
X177866040Y-115905280D01*
X178127660Y-116055140D01*
X178508660Y-115801140D01*
X178452780Y-115491260D01*
X178191160Y-115412520D01*
X178269900Y-115023900D01*
X178262280Y-115384580D01*
G37*
X178262280Y-115384580D02*
X178290220Y-115031520D01*
X179100480Y-115305840D01*
X179560220Y-115559840D01*
X179659280Y-116067840D01*
X179489100Y-116794280D01*
X179179220Y-117218460D01*
X178592480Y-117408960D01*
X177675540Y-117048280D01*
X177289460Y-116245640D01*
X177512980Y-115610640D01*
X177802540Y-115412520D01*
X177866040Y-115905280D01*
X178127660Y-116055140D01*
X178508660Y-115801140D01*
X178452780Y-115491260D01*
X178191160Y-115412520D01*
X178269900Y-115023900D01*
X178262280Y-115384580D01*
X182900000Y-108600000D02*
X183180000Y-108690000D01*
X183180000Y-108690000D02*
X183580000Y-108890000D01*
X183580000Y-108890000D02*
X183730000Y-109170000D01*
X183730000Y-109170000D02*
X183820000Y-109550000D01*
X183820000Y-109550000D02*
X183770000Y-109930000D01*
X183770000Y-109930000D02*
X183630000Y-110290000D01*
X183630000Y-110290000D02*
X183260000Y-110590000D01*
X183260000Y-110590000D02*
X182820000Y-110710000D01*
X182820000Y-110710000D02*
X182360000Y-110650000D01*
X182360000Y-110650000D02*
X181960000Y-110380000D01*
X181960000Y-110380000D02*
X181710000Y-109870000D01*
X181710000Y-109870000D02*
X181700000Y-109450000D01*
X181700000Y-109450000D02*
X181840000Y-109090000D01*
X181840000Y-109090000D02*
X182010000Y-109200000D01*
X182010000Y-109200000D02*
X182210000Y-109430000D01*
X182210000Y-109430000D02*
X182500000Y-109350000D01*
X182500000Y-109350000D02*
X182750000Y-109080000D01*
X182750000Y-109080000D02*
X182520000Y-108890000D01*
X182520000Y-108890000D02*
X182210000Y-108810000D01*
X182210000Y-108810000D02*
X182380000Y-108640000D01*
X182380000Y-108640000D02*
X182580000Y-108560000D01*
X182580000Y-108560000D02*
X182900000Y-108600000D01*
G36*
X182900000Y-108600000D02*
G01*
X183180000Y-108690000D01*
X183580000Y-108890000D01*
X183730000Y-109170000D01*
X183820000Y-109550000D01*
X183770000Y-109930000D01*
X183630000Y-110290000D01*
X183260000Y-110590000D01*
X182820000Y-110710000D01*
X182360000Y-110650000D01*
X181960000Y-110380000D01*
X181710000Y-109870000D01*
X181700000Y-109450000D01*
X181840000Y-109090000D01*
X182010000Y-109200000D01*
X182210000Y-109430000D01*
X182500000Y-109350000D01*
X182750000Y-109080000D01*
X182520000Y-108890000D01*
X182210000Y-108810000D01*
X182380000Y-108640000D01*
X182580000Y-108560000D01*
X182900000Y-108600000D01*
G37*
X182900000Y-108600000D02*
X183180000Y-108690000D01*
X183580000Y-108890000D01*
X183730000Y-109170000D01*
X183820000Y-109550000D01*
X183770000Y-109930000D01*
X183630000Y-110290000D01*
X183260000Y-110590000D01*
X182820000Y-110710000D01*
X182360000Y-110650000D01*
X181960000Y-110380000D01*
X181710000Y-109870000D01*
X181700000Y-109450000D01*
X181840000Y-109090000D01*
X182010000Y-109200000D01*
X182210000Y-109430000D01*
X182500000Y-109350000D01*
X182750000Y-109080000D01*
X182520000Y-108890000D01*
X182210000Y-108810000D01*
X182380000Y-108640000D01*
X182580000Y-108560000D01*
X182900000Y-108600000D01*
D11*
X170330000Y-115150000D02*
X170780000Y-115410000D01*
X170780000Y-115410000D02*
X171060000Y-115770000D01*
X171060000Y-115770000D02*
X171130000Y-116300000D01*
X171130000Y-116300000D02*
X171030000Y-116780000D01*
X171030000Y-116780000D02*
X170780000Y-117240000D01*
X170780000Y-117240000D02*
X170440000Y-117560000D01*
X170440000Y-117560000D02*
X169920000Y-117660000D01*
X169920000Y-117660000D02*
X169350000Y-117620000D01*
X169350000Y-117620000D02*
X168750000Y-117240000D01*
X168750000Y-117240000D02*
X168470000Y-116750000D01*
X168470000Y-116750000D02*
X168550000Y-115730000D01*
X168550000Y-115730000D02*
X168940000Y-115460000D01*
X168940000Y-115460000D02*
X168850000Y-115780000D01*
X168850000Y-115780000D02*
X168940000Y-116040000D01*
X168940000Y-116040000D02*
X169210000Y-116160000D01*
X169210000Y-116160000D02*
X169540000Y-116010000D01*
X169540000Y-116010000D02*
X169700000Y-115600000D01*
X169700000Y-115600000D02*
X169600000Y-115310000D01*
X169600000Y-115310000D02*
X169150000Y-115260000D01*
X169150000Y-115260000D02*
X169250000Y-115030000D01*
X169250000Y-115030000D02*
X169620000Y-114990000D01*
X169620000Y-114990000D02*
X169990000Y-114990000D01*
X169990000Y-114990000D02*
X170330000Y-115150000D01*
G36*
X170330000Y-115150000D02*
G01*
X170780000Y-115410000D01*
X171060000Y-115770000D01*
X171130000Y-116300000D01*
X171030000Y-116780000D01*
X170780000Y-117240000D01*
X170440000Y-117560000D01*
X169920000Y-117660000D01*
X169350000Y-117620000D01*
X168750000Y-117240000D01*
X168470000Y-116750000D01*
X168550000Y-115730000D01*
X168940000Y-115460000D01*
X168850000Y-115780000D01*
X168940000Y-116040000D01*
X169210000Y-116160000D01*
X169540000Y-116010000D01*
X169700000Y-115600000D01*
X169600000Y-115310000D01*
X169150000Y-115260000D01*
X169250000Y-115030000D01*
X169620000Y-114990000D01*
X169990000Y-114990000D01*
X170330000Y-115150000D01*
G37*
X170330000Y-115150000D02*
X170780000Y-115410000D01*
X171060000Y-115770000D01*
X171130000Y-116300000D01*
X171030000Y-116780000D01*
X170780000Y-117240000D01*
X170440000Y-117560000D01*
X169920000Y-117660000D01*
X169350000Y-117620000D01*
X168750000Y-117240000D01*
X168470000Y-116750000D01*
X168550000Y-115730000D01*
X168940000Y-115460000D01*
X168850000Y-115780000D01*
X168940000Y-116040000D01*
X169210000Y-116160000D01*
X169540000Y-116010000D01*
X169700000Y-115600000D01*
X169600000Y-115310000D01*
X169150000Y-115260000D01*
X169250000Y-115030000D01*
X169620000Y-114990000D01*
X169990000Y-114990000D01*
X170330000Y-115150000D01*
D10*
X190581280Y-115328700D02*
X191195960Y-116100860D01*
X191195960Y-116100860D02*
X190863220Y-117317520D01*
X190863220Y-117317520D02*
X189829440Y-117749320D01*
X189829440Y-117749320D02*
X188734700Y-117477540D01*
X188734700Y-117477540D02*
X188371480Y-116944140D01*
X188371480Y-116944140D02*
X188361320Y-115829080D01*
X188361320Y-115829080D02*
X188633100Y-115580160D01*
X188633100Y-115580160D02*
X188864240Y-115740180D01*
X188864240Y-115740180D02*
X188633100Y-115638580D01*
X188633100Y-115638580D02*
X188823600Y-115740180D01*
X188823600Y-115740180D02*
X188955680Y-116222780D01*
X188955680Y-116222780D02*
X189456060Y-116090700D01*
X189456060Y-116090700D02*
X189577980Y-115590320D01*
X189577980Y-115590320D02*
X189125860Y-115387120D01*
X189125860Y-115387120D02*
X189095380Y-115036600D01*
X189095380Y-115036600D02*
X189859920Y-115016280D01*
X189859920Y-115016280D02*
X190581280Y-115328700D01*
G36*
X190581280Y-115328700D02*
G01*
X191195960Y-116100860D01*
X190863220Y-117317520D01*
X189829440Y-117749320D01*
X188734700Y-117477540D01*
X188371480Y-116944140D01*
X188361320Y-115829080D01*
X188633100Y-115580160D01*
X188864240Y-115740180D01*
X188633100Y-115638580D01*
X188823600Y-115740180D01*
X188955680Y-116222780D01*
X189456060Y-116090700D01*
X189577980Y-115590320D01*
X189125860Y-115387120D01*
X189095380Y-115036600D01*
X189859920Y-115016280D01*
X190581280Y-115328700D01*
G37*
X190581280Y-115328700D02*
X191195960Y-116100860D01*
X190863220Y-117317520D01*
X189829440Y-117749320D01*
X188734700Y-117477540D01*
X188371480Y-116944140D01*
X188361320Y-115829080D01*
X188633100Y-115580160D01*
X188864240Y-115740180D01*
X188633100Y-115638580D01*
X188823600Y-115740180D01*
X188955680Y-116222780D01*
X189456060Y-116090700D01*
X189577980Y-115590320D01*
X189125860Y-115387120D01*
X189095380Y-115036600D01*
X189859920Y-115016280D01*
X190581280Y-115328700D01*
D11*
X183120000Y-95360000D02*
X183560000Y-95770000D01*
X183560000Y-95770000D02*
X183780000Y-96320000D01*
X183780000Y-96320000D02*
X183730000Y-96760000D01*
X183730000Y-96760000D02*
X183510000Y-97140000D01*
X183510000Y-97140000D02*
X183140000Y-97420000D01*
X183140000Y-97420000D02*
X182580000Y-97510000D01*
X182580000Y-97510000D02*
X182200000Y-97380000D01*
X182200000Y-97380000D02*
X181810000Y-97060000D01*
X181810000Y-97060000D02*
X181600000Y-96450000D01*
X181600000Y-96450000D02*
X181660000Y-96070000D01*
X181660000Y-96070000D02*
X181830000Y-95850000D01*
X181830000Y-95850000D02*
X181970000Y-95900000D01*
X181970000Y-95900000D02*
X182090000Y-96190000D01*
X182090000Y-96190000D02*
X182430000Y-96170000D01*
X182430000Y-96170000D02*
X182660000Y-95930000D01*
X182660000Y-95930000D02*
X182660000Y-95710000D01*
X182660000Y-95710000D02*
X182370000Y-95620000D01*
X182370000Y-95620000D02*
X182280000Y-95470000D01*
X182280000Y-95470000D02*
X182710000Y-95300000D01*
X182710000Y-95300000D02*
X183120000Y-95360000D01*
G36*
X183120000Y-95360000D02*
G01*
X183560000Y-95770000D01*
X183780000Y-96320000D01*
X183730000Y-96760000D01*
X183510000Y-97140000D01*
X183140000Y-97420000D01*
X182580000Y-97510000D01*
X182200000Y-97380000D01*
X181810000Y-97060000D01*
X181600000Y-96450000D01*
X181660000Y-96070000D01*
X181830000Y-95850000D01*
X181970000Y-95900000D01*
X182090000Y-96190000D01*
X182430000Y-96170000D01*
X182660000Y-95930000D01*
X182660000Y-95710000D01*
X182370000Y-95620000D01*
X182280000Y-95470000D01*
X182710000Y-95300000D01*
X183120000Y-95360000D01*
G37*
X183120000Y-95360000D02*
X183560000Y-95770000D01*
X183780000Y-96320000D01*
X183730000Y-96760000D01*
X183510000Y-97140000D01*
X183140000Y-97420000D01*
X182580000Y-97510000D01*
X182200000Y-97380000D01*
X181810000Y-97060000D01*
X181600000Y-96450000D01*
X181660000Y-96070000D01*
X181830000Y-95850000D01*
X181970000Y-95900000D01*
X182090000Y-96190000D01*
X182430000Y-96170000D01*
X182660000Y-95930000D01*
X182660000Y-95710000D01*
X182370000Y-95620000D01*
X182280000Y-95470000D01*
X182710000Y-95300000D01*
X183120000Y-95360000D01*
D10*
X174176739Y-96214062D02*
X175074580Y-96410780D01*
X175074580Y-96410780D02*
X175539400Y-96898460D01*
X175539400Y-96898460D02*
X175602900Y-97602040D01*
X175602900Y-97602040D02*
X175280320Y-98229420D01*
X175280320Y-98229420D02*
X174419260Y-98478340D01*
X174419260Y-98478340D02*
X173697900Y-98181160D01*
X173697900Y-98181160D02*
X173423580Y-97475040D01*
X173423580Y-97475040D02*
X173410880Y-96672400D01*
X173410880Y-96672400D02*
X173824900Y-97053400D01*
X173824900Y-97053400D02*
X174264320Y-97073720D01*
X174264320Y-97073720D02*
X174495460Y-96756220D01*
X174495460Y-96756220D02*
X174439580Y-96550480D01*
X174439580Y-96550480D02*
X174153483Y-96482558D01*
X174153483Y-96482558D02*
X174150020Y-96522540D01*
X174150020Y-96522540D02*
X174152655Y-96482361D01*
X174152655Y-96482361D02*
X174086520Y-96466660D01*
X174086520Y-96466660D02*
X174169568Y-96224438D01*
X174169568Y-96224438D02*
X174170340Y-96212660D01*
X174170340Y-96212660D02*
X174173378Y-96213326D01*
X174173378Y-96213326D02*
X174177960Y-96199960D01*
X174177960Y-96199960D02*
X174176739Y-96214062D01*
G36*
X174176739Y-96214062D02*
G01*
X175074580Y-96410780D01*
X175539400Y-96898460D01*
X175602900Y-97602040D01*
X175280320Y-98229420D01*
X174419260Y-98478340D01*
X173697900Y-98181160D01*
X173423580Y-97475040D01*
X173410880Y-96672400D01*
X173824900Y-97053400D01*
X174264320Y-97073720D01*
X174495460Y-96756220D01*
X174439580Y-96550480D01*
X174153483Y-96482558D01*
X174150020Y-96522540D01*
X174152655Y-96482361D01*
X174086520Y-96466660D01*
X174169568Y-96224438D01*
X174170340Y-96212660D01*
X174173378Y-96213326D01*
X174177960Y-96199960D01*
X174176739Y-96214062D01*
G37*
X174176739Y-96214062D02*
X175074580Y-96410780D01*
X175539400Y-96898460D01*
X175602900Y-97602040D01*
X175280320Y-98229420D01*
X174419260Y-98478340D01*
X173697900Y-98181160D01*
X173423580Y-97475040D01*
X173410880Y-96672400D01*
X173824900Y-97053400D01*
X174264320Y-97073720D01*
X174495460Y-96756220D01*
X174439580Y-96550480D01*
X174153483Y-96482558D01*
X174150020Y-96522540D01*
X174152655Y-96482361D01*
X174086520Y-96466660D01*
X174169568Y-96224438D01*
X174170340Y-96212660D01*
X174173378Y-96213326D01*
X174177960Y-96199960D01*
X174176739Y-96214062D01*
X172140000Y-108730000D02*
X172420000Y-108820000D01*
X172420000Y-108820000D02*
X172820000Y-109020000D01*
X172820000Y-109020000D02*
X172970000Y-109300000D01*
X172970000Y-109300000D02*
X173060000Y-109680000D01*
X173060000Y-109680000D02*
X173010000Y-110060000D01*
X173010000Y-110060000D02*
X172870000Y-110420000D01*
X172870000Y-110420000D02*
X172500000Y-110720000D01*
X172500000Y-110720000D02*
X172060000Y-110840000D01*
X172060000Y-110840000D02*
X171600000Y-110780000D01*
X171600000Y-110780000D02*
X171200000Y-110510000D01*
X171200000Y-110510000D02*
X170950000Y-110000000D01*
X170950000Y-110000000D02*
X170940000Y-109580000D01*
X170940000Y-109580000D02*
X171080000Y-109220000D01*
X171080000Y-109220000D02*
X171250000Y-109330000D01*
X171250000Y-109330000D02*
X171450000Y-109560000D01*
X171450000Y-109560000D02*
X171740000Y-109480000D01*
X171740000Y-109480000D02*
X171990000Y-109210000D01*
X171990000Y-109210000D02*
X171760000Y-109020000D01*
X171760000Y-109020000D02*
X171450000Y-108940000D01*
X171450000Y-108940000D02*
X171620000Y-108770000D01*
X171620000Y-108770000D02*
X171820000Y-108690000D01*
X171820000Y-108690000D02*
X172140000Y-108730000D01*
G36*
X172140000Y-108730000D02*
G01*
X172420000Y-108820000D01*
X172820000Y-109020000D01*
X172970000Y-109300000D01*
X173060000Y-109680000D01*
X173010000Y-110060000D01*
X172870000Y-110420000D01*
X172500000Y-110720000D01*
X172060000Y-110840000D01*
X171600000Y-110780000D01*
X171200000Y-110510000D01*
X170950000Y-110000000D01*
X170940000Y-109580000D01*
X171080000Y-109220000D01*
X171250000Y-109330000D01*
X171450000Y-109560000D01*
X171740000Y-109480000D01*
X171990000Y-109210000D01*
X171760000Y-109020000D01*
X171450000Y-108940000D01*
X171620000Y-108770000D01*
X171820000Y-108690000D01*
X172140000Y-108730000D01*
G37*
X172140000Y-108730000D02*
X172420000Y-108820000D01*
X172820000Y-109020000D01*
X172970000Y-109300000D01*
X173060000Y-109680000D01*
X173010000Y-110060000D01*
X172870000Y-110420000D01*
X172500000Y-110720000D01*
X172060000Y-110840000D01*
X171600000Y-110780000D01*
X171200000Y-110510000D01*
X170950000Y-110000000D01*
X170940000Y-109580000D01*
X171080000Y-109220000D01*
X171250000Y-109330000D01*
X171450000Y-109560000D01*
X171740000Y-109480000D01*
X171990000Y-109210000D01*
X171760000Y-109020000D01*
X171450000Y-108940000D01*
X171620000Y-108770000D01*
X171820000Y-108690000D01*
X172140000Y-108730000D01*
X187284360Y-103012240D02*
X187441840Y-103065580D01*
X187441840Y-103065580D02*
X187596780Y-103151940D01*
X187596780Y-103151940D02*
X187764420Y-103284020D01*
X187764420Y-103284020D02*
X187929520Y-103459280D01*
X187929520Y-103459280D02*
X188048900Y-103624380D01*
X188048900Y-103624380D02*
X188135260Y-103814880D01*
X188135260Y-103814880D02*
X188165740Y-104030780D01*
X188165740Y-104030780D02*
X188168280Y-104198420D01*
X188168280Y-104198420D02*
X188165740Y-104383840D01*
X188165740Y-104383840D02*
X188150500Y-104500680D01*
X188150500Y-104500680D02*
X188094620Y-104719120D01*
X188094620Y-104719120D02*
X187987940Y-104899460D01*
X187987940Y-104899460D02*
X187822840Y-105049320D01*
X187822840Y-105049320D02*
X187624720Y-105234740D01*
X187624720Y-105234740D02*
X187579000Y-105280460D01*
X187579000Y-105280460D02*
X187485020Y-105336340D01*
X187485020Y-105336340D02*
X187360560Y-105394760D01*
X187360560Y-105394760D02*
X187213240Y-105437940D01*
X187213240Y-105437940D02*
X186999880Y-105455720D01*
X186999880Y-105455720D02*
X186900820Y-105453180D01*
X186900820Y-105453180D02*
X186766200Y-105448100D01*
X186766200Y-105448100D02*
X186639200Y-105432860D01*
X186639200Y-105432860D02*
X186433460Y-105361740D01*
X186433460Y-105361740D02*
X186286140Y-105277920D01*
X186286140Y-105277920D02*
X186118500Y-105150920D01*
X186118500Y-105150920D02*
X186037220Y-105074720D01*
X186037220Y-105074720D02*
X185935620Y-104955340D01*
X185935620Y-104955340D02*
X185897520Y-104894380D01*
X185897520Y-104894380D02*
X185869580Y-104848660D01*
X185869580Y-104848660D02*
X185844180Y-104808020D01*
X185844180Y-104808020D02*
X185823860Y-104772460D01*
X185823860Y-104772460D02*
X185801000Y-104714040D01*
X185801000Y-104714040D02*
X185737500Y-104541320D01*
X185737500Y-104541320D02*
X185707020Y-104376220D01*
X185707020Y-104376220D02*
X185696860Y-104140000D01*
X185696860Y-104140000D02*
X185712100Y-103969820D01*
X185712100Y-103969820D02*
X185755280Y-103817420D01*
X185755280Y-103817420D02*
X185834020Y-103644700D01*
X185834020Y-103644700D02*
X185912760Y-103525320D01*
X185912760Y-103525320D02*
X185996580Y-103601520D01*
X185996580Y-103601520D02*
X185994040Y-103596440D01*
X185994040Y-103596440D02*
X186321700Y-104002840D01*
X186321700Y-104002840D02*
X186695080Y-103924100D01*
X186695080Y-103924100D02*
X186865260Y-103535480D01*
X186865260Y-103535480D02*
X186819540Y-103207820D01*
X186819540Y-103207820D02*
X186367420Y-103052880D01*
X186367420Y-103052880D02*
X186789060Y-102974140D01*
X186789060Y-102974140D02*
X186989720Y-102971600D01*
X186989720Y-102971600D02*
X187284360Y-103012240D01*
G36*
X187284360Y-103012240D02*
G01*
X187441840Y-103065580D01*
X187596780Y-103151940D01*
X187764420Y-103284020D01*
X187929520Y-103459280D01*
X188048900Y-103624380D01*
X188135260Y-103814880D01*
X188165740Y-104030780D01*
X188168280Y-104198420D01*
X188165740Y-104383840D01*
X188150500Y-104500680D01*
X188094620Y-104719120D01*
X187987940Y-104899460D01*
X187822840Y-105049320D01*
X187624720Y-105234740D01*
X187579000Y-105280460D01*
X187485020Y-105336340D01*
X187360560Y-105394760D01*
X187213240Y-105437940D01*
X186999880Y-105455720D01*
X186900820Y-105453180D01*
X186766200Y-105448100D01*
X186639200Y-105432860D01*
X186433460Y-105361740D01*
X186286140Y-105277920D01*
X186118500Y-105150920D01*
X186037220Y-105074720D01*
X185935620Y-104955340D01*
X185897520Y-104894380D01*
X185869580Y-104848660D01*
X185844180Y-104808020D01*
X185823860Y-104772460D01*
X185801000Y-104714040D01*
X185737500Y-104541320D01*
X185707020Y-104376220D01*
X185696860Y-104140000D01*
X185712100Y-103969820D01*
X185755280Y-103817420D01*
X185834020Y-103644700D01*
X185912760Y-103525320D01*
X185996580Y-103601520D01*
X185994040Y-103596440D01*
X186321700Y-104002840D01*
X186695080Y-103924100D01*
X186865260Y-103535480D01*
X186819540Y-103207820D01*
X186367420Y-103052880D01*
X186789060Y-102974140D01*
X186989720Y-102971600D01*
X187284360Y-103012240D01*
G37*
X187284360Y-103012240D02*
X187441840Y-103065580D01*
X187596780Y-103151940D01*
X187764420Y-103284020D01*
X187929520Y-103459280D01*
X188048900Y-103624380D01*
X188135260Y-103814880D01*
X188165740Y-104030780D01*
X188168280Y-104198420D01*
X188165740Y-104383840D01*
X188150500Y-104500680D01*
X188094620Y-104719120D01*
X187987940Y-104899460D01*
X187822840Y-105049320D01*
X187624720Y-105234740D01*
X187579000Y-105280460D01*
X187485020Y-105336340D01*
X187360560Y-105394760D01*
X187213240Y-105437940D01*
X186999880Y-105455720D01*
X186900820Y-105453180D01*
X186766200Y-105448100D01*
X186639200Y-105432860D01*
X186433460Y-105361740D01*
X186286140Y-105277920D01*
X186118500Y-105150920D01*
X186037220Y-105074720D01*
X185935620Y-104955340D01*
X185897520Y-104894380D01*
X185869580Y-104848660D01*
X185844180Y-104808020D01*
X185823860Y-104772460D01*
X185801000Y-104714040D01*
X185737500Y-104541320D01*
X185707020Y-104376220D01*
X185696860Y-104140000D01*
X185712100Y-103969820D01*
X185755280Y-103817420D01*
X185834020Y-103644700D01*
X185912760Y-103525320D01*
X185996580Y-103601520D01*
X185994040Y-103596440D01*
X186321700Y-104002840D01*
X186695080Y-103924100D01*
X186865260Y-103535480D01*
X186819540Y-103207820D01*
X186367420Y-103052880D01*
X186789060Y-102974140D01*
X186989720Y-102971600D01*
X187284360Y-103012240D01*
D12*
X179668060Y-81252060D03*
X181718060Y-81252060D03*
X178931460Y-89136220D03*
X180981460Y-89136220D03*
X182459520Y-92796360D03*
X184509520Y-92796360D03*
X177702100Y-97642680D03*
X179752100Y-97642680D03*
X172657660Y-103675180D03*
X174707660Y-103675180D03*
X185469420Y-107188000D03*
X187519420Y-107188000D03*
X178072940Y-109700060D03*
X180122940Y-109700060D03*
X169322640Y-112217200D03*
X171372640Y-112217200D03*
X180971080Y-116733320D03*
X183021080Y-116733320D03*
X188894500Y-111676180D03*
X190944500Y-111676180D03*
X167470980Y-119240300D03*
X169520980Y-119240300D03*
X192435260Y-118785640D03*
X194485260Y-118785640D03*
D13*
X179619400Y-83748880D03*
X181619400Y-83748880D03*
X176985420Y-91958160D03*
X178985420Y-91958160D03*
X184061860Y-98785680D03*
X186061860Y-98785680D03*
X177681380Y-100045520D03*
X179681380Y-100045520D03*
X172682660Y-106156760D03*
X174682660Y-106156760D03*
X182139080Y-104935020D03*
X184139080Y-104935020D03*
X178611020Y-111846360D03*
X180611020Y-111846360D03*
X173524160Y-112176560D03*
X175524160Y-112176560D03*
X181011320Y-119110760D03*
X183011320Y-119110760D03*
X184844180Y-111597440D03*
X186844180Y-111597440D03*
X171610020Y-119278400D03*
X173610020Y-119278400D03*
X188219840Y-119560340D03*
X190219840Y-119560340D03*
D14*
X176359260Y-95848163D03*
X172458940Y-101418397D03*
M02*
