%FSLAX45Y45*%
G04 Gerber Fmt 4.5, Leading zero omitted, Abs format (unit mm)*
G04 Created by KiCad (PCBNEW (6.0.0)) date 2022-10-06 13:39:08*
%MOMM*%
%LPD*%
G01*
G04 APERTURE LIST*
%TA.AperFunction,Profile*%
%ADD10C,0.200000*%
%TD*%
%ADD11C,0.200000*%
%ADD12C,0.030000*%
G04 APERTURE END LIST*
D10*
X17457439Y-12303614D02*
X17504464Y-12288672D01*
D11*
X18345841Y-12590880D02*
X18344131Y-12569388D01*
X18342169Y-12548608D01*
X18341971Y-12546586D01*
X17673141Y-8870309D02*
X17661615Y-8891688D01*
X17651188Y-8910817D01*
X17641392Y-8928337D01*
X17626854Y-8953005D01*
X17611098Y-8977667D01*
X17599136Y-8995176D01*
X17585460Y-9014288D01*
X17569602Y-9035645D01*
X17551093Y-9059891D01*
X17529465Y-9087666D01*
X17504247Y-9119615D01*
X17490147Y-9137354D01*
X17474973Y-9156378D01*
X17458668Y-9176766D01*
X17441172Y-9198599D01*
X17422428Y-9221956D01*
X17402376Y-9246919D01*
X17380959Y-9273568D01*
X17358117Y-9301982D01*
X17704633Y-12325880D02*
X17703099Y-12346986D01*
X17700630Y-12367244D01*
X17697105Y-12389782D01*
X17692545Y-12414463D01*
X17688170Y-12435657D01*
X17683160Y-12458064D01*
X17678993Y-12475623D01*
X19798543Y-11932592D02*
X19781869Y-11915512D01*
X19766133Y-11899259D01*
X19751251Y-11883737D01*
X19737138Y-11868852D01*
X19717226Y-11847507D01*
X19698570Y-11827057D01*
X19680884Y-11807180D01*
X19663884Y-11787554D01*
X19647285Y-11767858D01*
X19630801Y-11747769D01*
X19614147Y-11726966D01*
X19597040Y-11705127D01*
X18729736Y-9343306D02*
X18725424Y-9320672D01*
X18719042Y-9300899D01*
X18709637Y-9282208D01*
X18696258Y-9262821D01*
X18681387Y-9244849D01*
X18670593Y-9232813D01*
X18375275Y-8694125D02*
X18381009Y-8671757D01*
X18381915Y-8651198D01*
X18380551Y-8630266D01*
X18377207Y-8604092D01*
X18373329Y-8580325D01*
X18368223Y-8552470D01*
X18364112Y-8531388D01*
X18359420Y-8508128D01*
X18354131Y-8482544D01*
X17763180Y-8678002D02*
X17755285Y-8698868D01*
X17745101Y-8721901D01*
X17735616Y-8742639D01*
X17725076Y-8765219D01*
X17713954Y-8788630D01*
X17702726Y-8811857D01*
X17691864Y-8833888D01*
X17681845Y-8853710D01*
X17673141Y-8870309D01*
X19199460Y-12224933D02*
X19217333Y-12214291D01*
X19242295Y-12200006D01*
X19265282Y-12187647D01*
X19286568Y-12177110D01*
X19306424Y-12168295D01*
X19325122Y-12161098D01*
X19348723Y-12153845D01*
X19371395Y-12149047D01*
X19393784Y-12146463D01*
X19410778Y-12145832D01*
X19870903Y-12226219D02*
X19891552Y-12216860D01*
X19909433Y-12205736D01*
X19925000Y-12192015D01*
X19932905Y-12181095D01*
D10*
X18329186Y-12327669D02*
X18328245Y-12303724D01*
D11*
X17100710Y-10258892D02*
X17092159Y-10279906D01*
X17082897Y-10299529D01*
X17071578Y-10322671D01*
X17062312Y-10341184D01*
X17052824Y-10359789D01*
X17043517Y-10377677D01*
X17032081Y-10399015D01*
X17024754Y-10412084D01*
X16915354Y-10883866D02*
X16905299Y-10904327D01*
X16893393Y-10926229D01*
X16882586Y-10945513D01*
X16870732Y-10966267D01*
X16858338Y-10987614D01*
X16845909Y-11008674D01*
X16833953Y-11028567D01*
X16822975Y-11046415D01*
X16810736Y-11065510D01*
X17994058Y-12668882D02*
X18014750Y-12663707D01*
X18034762Y-12658430D01*
X18055099Y-12653003D01*
X18077921Y-12646865D01*
X18092480Y-12642926D01*
X16960654Y-10150053D02*
X16965510Y-10169819D01*
X16973701Y-10189643D01*
X16984986Y-10207015D01*
X16999653Y-10222458D01*
X17001739Y-10224278D01*
X18779900Y-9699737D02*
X18769634Y-9682294D01*
X18758204Y-9662330D01*
X18746083Y-9640729D01*
X18733747Y-9618376D01*
X18721671Y-9596158D01*
X18710329Y-9574958D01*
X18700197Y-9555664D01*
X18689389Y-9534431D01*
X18681069Y-9515521D01*
X17713278Y-8476546D02*
X17704194Y-8502938D01*
X17696795Y-8524647D01*
X17689250Y-8547501D01*
X17682973Y-8568583D01*
X17678634Y-8589857D01*
X17677466Y-8612640D01*
X17677443Y-8619531D01*
X18580660Y-8157231D02*
X18594957Y-8139557D01*
X18604632Y-8121150D01*
X18606158Y-8099935D01*
X18595629Y-8080131D01*
X18593725Y-8077955D01*
X19068524Y-10060903D02*
X19043375Y-10035150D01*
X19019663Y-10010432D01*
X18997281Y-9986617D01*
X18976126Y-9963575D01*
X18956092Y-9941174D01*
X18937076Y-9919285D01*
X18918974Y-9897776D01*
X18901680Y-9876516D01*
X18885090Y-9855376D01*
X18869100Y-9834223D01*
X18853604Y-9812928D01*
X18838500Y-9791360D01*
X18823682Y-9769387D01*
X18809045Y-9746880D01*
X18794486Y-9723706D01*
X18779900Y-9699737D01*
X19010608Y-10270028D02*
X19029463Y-10262187D01*
X19041042Y-10261271D01*
D10*
X17980846Y-12656378D02*
X17980846Y-12656378D01*
D11*
X19157486Y-10157483D02*
X19144415Y-10141254D01*
X19128685Y-10123844D01*
X19112156Y-10106131D01*
X19097206Y-10090420D01*
X19081118Y-10073769D01*
X19068524Y-10060903D01*
X19648004Y-11395400D02*
X19629459Y-11379387D01*
X19614252Y-11365477D01*
X19598268Y-11350281D01*
X19581805Y-11334108D01*
X19565166Y-11317265D01*
X19548650Y-11300061D01*
X19532556Y-11282804D01*
X19517187Y-11265803D01*
X19502842Y-11249366D01*
X19489821Y-11233802D01*
X19485827Y-11228862D01*
X17752944Y-8678177D02*
X17763180Y-8678002D01*
X17733423Y-8281000D02*
X17744586Y-8298808D01*
X17748881Y-8318369D01*
X17749131Y-8338366D01*
X18308924Y-12598275D02*
X18330319Y-12596305D01*
X18345841Y-12590880D01*
X16561490Y-12178108D02*
X16585114Y-12174042D01*
X16609152Y-12171360D01*
X16633513Y-12170043D01*
X16658108Y-12170068D01*
X16682845Y-12171414D01*
X16707635Y-12174059D01*
X16732387Y-12177983D01*
X16757011Y-12183164D01*
X16781417Y-12189580D01*
X16805514Y-12197210D01*
X16829212Y-12206033D01*
X16852420Y-12216028D01*
X16875048Y-12227173D01*
X16897006Y-12239446D01*
X16918204Y-12252826D01*
X16938551Y-12267293D01*
X16778788Y-10713604D02*
X16763681Y-10727976D01*
X16750473Y-10744282D01*
X16745484Y-10755449D01*
X19500658Y-11572899D02*
X19520666Y-11575659D01*
X19533103Y-11577675D01*
X16745484Y-10755449D02*
X16743475Y-10776802D01*
X16749174Y-10798019D01*
X16761625Y-10818302D01*
X16779874Y-10836852D01*
X16796790Y-10849146D01*
X16816026Y-10859679D01*
X16837180Y-10868113D01*
X16859848Y-10874112D01*
X16883627Y-10877338D01*
X16891731Y-10877739D01*
X19638861Y-12192114D02*
X19663255Y-12199860D01*
X19684935Y-12206551D01*
X19704245Y-12212268D01*
X19726902Y-12218517D01*
X19746776Y-12223372D01*
X19768949Y-12227770D01*
X19789646Y-12230664D01*
X19810462Y-12232428D01*
X17678993Y-12475623D02*
X17674374Y-12495280D01*
X17669687Y-12516748D01*
X17665678Y-12537245D01*
X17663414Y-12553853D01*
X17980846Y-12656372D02*
X17994058Y-12668882D01*
X19323586Y-10730095D02*
X19304779Y-10714634D01*
X19287825Y-10700442D01*
X19272512Y-10687322D01*
X19254287Y-10671151D01*
X19238110Y-10656060D01*
X19223484Y-10641580D01*
X19206626Y-10623619D01*
X19190443Y-10604956D01*
X19187201Y-10601058D01*
D10*
X16646150Y-11517538D02*
X16602879Y-11581539D01*
D11*
X17001739Y-10224278D02*
X17019022Y-10235671D01*
X17038034Y-10244234D01*
X17058340Y-10250640D01*
X17080266Y-10254284D01*
X17085166Y-10254449D01*
X19032951Y-10330282D02*
X19026048Y-10311418D01*
X19019053Y-10292444D01*
X19011899Y-10273321D01*
X19010608Y-10270028D01*
X18089766Y-7668899D02*
X18070183Y-7674997D01*
X18064798Y-7677989D01*
X19146140Y-10225009D02*
X19160098Y-10209492D01*
X19163952Y-10189098D01*
X18341971Y-12546586D02*
X18340183Y-12525248D01*
X18338523Y-12501775D01*
X18337197Y-12481338D01*
X18335839Y-12459122D01*
X18334483Y-12435706D01*
X18333164Y-12411673D01*
X18331915Y-12387604D01*
X18330770Y-12364081D01*
X18329764Y-12341686D01*
X18329186Y-12327669D01*
X17892362Y-7966496D02*
X17874067Y-7977176D01*
X17853105Y-7982370D01*
X17829816Y-7984327D01*
X17803564Y-7985137D01*
X17778276Y-7985435D01*
X17747368Y-7985560D01*
X17723275Y-7985589D01*
X19932905Y-12181095D02*
X19939220Y-12161827D01*
X19940436Y-12141796D01*
X19937713Y-12120113D01*
X19931126Y-12098023D01*
X19927141Y-12088741D01*
D10*
X17671394Y-12300719D02*
X17705317Y-12308132D01*
D11*
X18092480Y-12642926D02*
X18112677Y-12637492D01*
X18140627Y-12630142D01*
X18166003Y-12623703D01*
X18189076Y-12618120D01*
X18210119Y-12613335D01*
X18235485Y-12608102D01*
X18258367Y-12604058D01*
X18279408Y-12601069D01*
X18304100Y-12598616D01*
X18308924Y-12598275D01*
X19485827Y-11228862D02*
X19467760Y-11205787D01*
X19450193Y-11182305D01*
X19433039Y-11158275D01*
X19416211Y-11133557D01*
X19405131Y-11116628D01*
X19394131Y-11099289D01*
X19383185Y-11081500D01*
X19372267Y-11063218D01*
X19361352Y-11044403D01*
X19350414Y-11025013D01*
X19339426Y-11005007D01*
X19328363Y-10984342D01*
X19317199Y-10962979D01*
X19305908Y-10940875D01*
D10*
X17299588Y-9584976D02*
X17319938Y-9589811D01*
D11*
X18439621Y-8265170D02*
X18461870Y-8249790D01*
X18481870Y-8235790D01*
X18499754Y-8223069D01*
X18520534Y-8207923D01*
X18538099Y-8194632D01*
X18556008Y-8180263D01*
X18572371Y-8165695D01*
X18580660Y-8157231D01*
X17570967Y-12290992D02*
X17593871Y-12292031D01*
X17615435Y-12293484D01*
X17638251Y-12295641D01*
X17660292Y-12298623D01*
X17671394Y-12300719D01*
X19308679Y-10866562D02*
X19330051Y-10865761D01*
X19350459Y-10862497D01*
X19367483Y-10856162D01*
X18593725Y-8077955D02*
X18576819Y-8064297D01*
X18556196Y-8054951D01*
X18533259Y-8048438D01*
X18510368Y-8043851D01*
X18490186Y-8040675D01*
X18467163Y-8037654D01*
X18441065Y-8034726D01*
X18431642Y-8033760D01*
X17291608Y-9643658D02*
X17274895Y-9674905D01*
X17257944Y-9705548D01*
X17240714Y-9735646D01*
X17223164Y-9765257D01*
X17205253Y-9794442D01*
X17186940Y-9823258D01*
X17168185Y-9851765D01*
X17148947Y-9880022D01*
X17129184Y-9908087D01*
X17108856Y-9936021D01*
X17087922Y-9963882D01*
X17066342Y-9991729D01*
X17044073Y-10019621D01*
X17021076Y-10047616D01*
X16997309Y-10075776D01*
X16972732Y-10104157D01*
X18191913Y-7849234D02*
X18185352Y-7827507D01*
X18179221Y-7807707D01*
X18170726Y-7781397D01*
X18162936Y-7758856D01*
X18155696Y-7739746D01*
X18146628Y-7719014D01*
X18135715Y-7699605D01*
X18122289Y-7683785D01*
X18112561Y-7676511D01*
X18244777Y-7982970D02*
X18233094Y-7964483D01*
X18224353Y-7945829D01*
X18216604Y-7925938D01*
X18209854Y-7906556D01*
X18202424Y-7883609D01*
X18196300Y-7863791D01*
X18191913Y-7849234D01*
X16891731Y-10877739D02*
X16912224Y-10879623D01*
X16915354Y-10883866D01*
D10*
X17705317Y-12308132D02*
X17704633Y-12325880D01*
D11*
X19187201Y-10601058D02*
X19174102Y-10584928D01*
X19161636Y-10568994D01*
X19144043Y-10545319D01*
X19127668Y-10521721D01*
X19112386Y-10497983D01*
X19098072Y-10473885D01*
X19084602Y-10449209D01*
X19071852Y-10423738D01*
X19059697Y-10397252D01*
X19048013Y-10369534D01*
X19040423Y-10350263D01*
X19032951Y-10330282D01*
X16810736Y-11065510D02*
X16795944Y-11087375D01*
X16781669Y-11107675D01*
X16767552Y-11126826D01*
X16753236Y-11145246D01*
X16738362Y-11163351D01*
X16722570Y-11181559D01*
X16705504Y-11200285D01*
X16686803Y-11219948D01*
X16666111Y-11240964D01*
X16651032Y-11255933D01*
X16634801Y-11271811D01*
X16626222Y-11280130D01*
X17523731Y-8041131D02*
X17528039Y-8062764D01*
X17537512Y-8080382D01*
X17549826Y-8096860D01*
X17566998Y-8116238D01*
X17583424Y-8133110D01*
X17603171Y-8152324D01*
X17618306Y-8166586D01*
X17635103Y-8182114D01*
X17653638Y-8199000D01*
X19597040Y-11705127D02*
X19582715Y-11686436D01*
X19566917Y-11665450D01*
X19554741Y-11649081D01*
X19542782Y-11632854D01*
X19527948Y-11612503D01*
X19515357Y-11594954D01*
X19502998Y-11577070D01*
X19500658Y-11572899D01*
X19041042Y-10261271D02*
X19062832Y-10259010D01*
X19082607Y-10255497D01*
X19103702Y-10249621D01*
X19124721Y-10240461D01*
X19141920Y-10228802D01*
X19146140Y-10225009D01*
X18694549Y-9496212D02*
X18706664Y-9479295D01*
X18716693Y-9458208D01*
X18723048Y-9439063D01*
X18727781Y-9418496D01*
X18730765Y-9397060D01*
X18731872Y-9375310D01*
X18730976Y-9353799D01*
X18729736Y-9343306D01*
X19305908Y-10940875D02*
X19295465Y-10920330D01*
X19284910Y-10899363D01*
X19276379Y-10879392D01*
X19294249Y-10866597D01*
X19308679Y-10866562D01*
D10*
X17504464Y-12288672D02*
X17570967Y-12290992D01*
X16612133Y-11514884D02*
X16646150Y-11517538D01*
X17677443Y-8619531D02*
X17677379Y-8658762D01*
D11*
X16175351Y-12211634D02*
X16193277Y-12224987D01*
X16214149Y-12235728D01*
X16237507Y-12243844D01*
X16262895Y-12249328D01*
X16289854Y-12252167D01*
X16317926Y-12252352D01*
X16346655Y-12249873D01*
X16375581Y-12244719D01*
X16404247Y-12236880D01*
X16432195Y-12226345D01*
X16450202Y-12217819D01*
X17749131Y-8338366D02*
X17748297Y-8359889D01*
X17743978Y-8382634D01*
X17738219Y-8402443D01*
X17731340Y-8423615D01*
X17724618Y-8443519D01*
X17716385Y-8467528D01*
X17713278Y-8476546D01*
D10*
X18089767Y-7668911D02*
X18089766Y-7668899D01*
X17663414Y-12553853D02*
X17663414Y-12567930D01*
D11*
X16938551Y-12267293D02*
X16961317Y-12283694D01*
X16983515Y-12298043D01*
X17005444Y-12310436D01*
X17027401Y-12320970D01*
X17049684Y-12329740D01*
X17072591Y-12336844D01*
X17096420Y-12342378D01*
X17121468Y-12346438D01*
X17148034Y-12349120D01*
X17176414Y-12350521D01*
X17196490Y-12350790D01*
D10*
X18838704Y-12331468D02*
X18904552Y-12331574D01*
D11*
X18329730Y-8721992D02*
X18350854Y-8718812D01*
X18368250Y-8706522D01*
X18375275Y-8694125D01*
X16450202Y-12217819D02*
X16469127Y-12208357D01*
X16489349Y-12199214D01*
X16508391Y-12191938D01*
X16527877Y-12185948D01*
X16549431Y-12180665D01*
X16561490Y-12178108D01*
X17963062Y-7849391D02*
X17952911Y-7871631D01*
X17942949Y-7892009D01*
X17933269Y-7910369D01*
X17921708Y-7930246D01*
X17908864Y-7949194D01*
X17894004Y-7965278D01*
X17892362Y-7966496D01*
X16626222Y-11280130D02*
X16606819Y-11298953D01*
X16590272Y-11315154D01*
X16572178Y-11333202D01*
X16558018Y-11347847D01*
X16542731Y-11365002D01*
X16530030Y-11382663D01*
X16525503Y-11390875D01*
D10*
X18313221Y-8721992D02*
X18329730Y-8721992D01*
D11*
X18681069Y-9515521D02*
X18692503Y-9498528D01*
X18694549Y-9496212D01*
X19403874Y-10812002D02*
X19392744Y-10794050D01*
X19378693Y-10779031D01*
X19363241Y-10764267D01*
X19344756Y-10747837D01*
X19328018Y-10733731D01*
X19323586Y-10730095D01*
X18112561Y-7676511D02*
X18093855Y-7669076D01*
X18089767Y-7668911D01*
D10*
X17733423Y-8281000D02*
X17653638Y-8199000D01*
D11*
X19367483Y-10856162D02*
X19385983Y-10846529D01*
X19400858Y-10831683D01*
X19403874Y-10812002D01*
X18354131Y-8482544D02*
X18349390Y-8458198D01*
X18345840Y-8436237D01*
X18343073Y-8411986D01*
X18342153Y-8391103D01*
X18343479Y-8370208D01*
X18349349Y-8348848D01*
X19410778Y-12145832D02*
X19434631Y-12146169D01*
X19457713Y-12147635D01*
X19481074Y-12150445D01*
X19505766Y-12154812D01*
X19525790Y-12159237D01*
X19547598Y-12164748D01*
X19571632Y-12171434D01*
X19598336Y-12179387D01*
X19617841Y-12185436D01*
X19638861Y-12192114D01*
X17723077Y-8682070D02*
X17743866Y-8680349D01*
X17752944Y-8678177D01*
X17085166Y-10254449D02*
X17100710Y-10258892D01*
X17723275Y-7985589D02*
X17702609Y-7985613D01*
X17675697Y-7985697D01*
X17653222Y-7985862D01*
X17629258Y-7986254D01*
X17607206Y-7987105D01*
X17586755Y-7989190D01*
X17570533Y-7993235D01*
D10*
X17677379Y-8658762D02*
X17690410Y-8670413D01*
X17663414Y-12567930D02*
X17694339Y-12570390D01*
D11*
X17024754Y-10412084D02*
X17012445Y-10432935D01*
X16999749Y-10453491D01*
X16986662Y-10473758D01*
X16973180Y-10493742D01*
X16959297Y-10513448D01*
X16945009Y-10532883D01*
X16930311Y-10552053D01*
X16915198Y-10570963D01*
X16899666Y-10589619D01*
X16883709Y-10608027D01*
X16867323Y-10626194D01*
X16850503Y-10644124D01*
X16833245Y-10661825D01*
X16815543Y-10679301D01*
X16797392Y-10696559D01*
X16778788Y-10713604D01*
X18670593Y-9232813D02*
X18646639Y-9206227D01*
X18622880Y-9178980D01*
X18599358Y-9151131D01*
X18576114Y-9122738D01*
X18553191Y-9093859D01*
X18530630Y-9064554D01*
X18508473Y-9034880D01*
X18486762Y-9004897D01*
X18465537Y-8974662D01*
X18444842Y-8944235D01*
X18424717Y-8913673D01*
X18405205Y-8883036D01*
X18386347Y-8852382D01*
X18368184Y-8821769D01*
X18350760Y-8791257D01*
X18334114Y-8760902D01*
X17690410Y-8670413D02*
X17708495Y-8680895D01*
X17723077Y-8682070D01*
X18064798Y-7677989D02*
X18047112Y-7692141D01*
X18034305Y-7707907D01*
X18023287Y-7725040D01*
X18011099Y-7747004D01*
X18000922Y-7767099D01*
X17989649Y-7790651D01*
X17977092Y-7817976D01*
X17967914Y-7838445D01*
X17963062Y-7849391D01*
D10*
X16183318Y-12058308D02*
X16133921Y-12100077D01*
D11*
X16525503Y-11390875D02*
X16517421Y-11409761D01*
X16512155Y-11433027D01*
X16513037Y-11453894D01*
X16522539Y-11476248D01*
X16536664Y-11490868D01*
X16556413Y-11502334D01*
X16581623Y-11510417D01*
X16604017Y-11514119D01*
X16612133Y-11514884D01*
D10*
X17319938Y-9589811D02*
X17291608Y-9643658D01*
X16133921Y-12100077D02*
X16136125Y-12129184D01*
D11*
X17570533Y-7993235D02*
X17551502Y-8002148D01*
X17535009Y-8016933D01*
X17524403Y-8035621D01*
X17523731Y-8041131D01*
X19810462Y-12232428D02*
X19830973Y-12233347D01*
X19851863Y-12231958D01*
X19870903Y-12226219D01*
X18365899Y-12290611D02*
X18393991Y-12281627D01*
X18421292Y-12274697D01*
X18448515Y-12269849D01*
X18476373Y-12267109D01*
X18505579Y-12266507D01*
X18526150Y-12267305D01*
X18547849Y-12269075D01*
X18570886Y-12271822D01*
X18595473Y-12275556D01*
X18621820Y-12280285D01*
X18650139Y-12286016D01*
X18680642Y-12292759D01*
X18713539Y-12300521D01*
X18730952Y-12304787D01*
X19690633Y-11439560D02*
X19677292Y-11423209D01*
X19662384Y-11408175D01*
X19648004Y-11395400D01*
X19533103Y-11577675D02*
X19560066Y-11581278D01*
X19585157Y-11582891D01*
X19608289Y-11582588D01*
X19629373Y-11580449D01*
X19656967Y-11573963D01*
X19679460Y-11563778D01*
X19696553Y-11550154D01*
X19707950Y-11533350D01*
X19713353Y-11513629D01*
X19712466Y-11491250D01*
X19704992Y-11466473D01*
X19690633Y-11439560D01*
X18904552Y-12331574D02*
X18928228Y-12331551D01*
X18951021Y-12331009D01*
X18972706Y-12328773D01*
X18993536Y-12323784D01*
X19014310Y-12316740D01*
X19035515Y-12308762D01*
X19048221Y-12303882D01*
X17358117Y-9301982D02*
X17342460Y-9321544D01*
X17327031Y-9340981D01*
X17312227Y-9359784D01*
X17298444Y-9377442D01*
X17286079Y-9393445D01*
X17273220Y-9410343D01*
X17261455Y-9426418D01*
X16602879Y-11581539D02*
X16590682Y-11599442D01*
X16578445Y-11617131D01*
X16566165Y-11634607D01*
X16553841Y-11651872D01*
X16541470Y-11668929D01*
X16529051Y-11685780D01*
X16516582Y-11702427D01*
X16504062Y-11718872D01*
X16491488Y-11735117D01*
X16478859Y-11751164D01*
X16466173Y-11767015D01*
X16453427Y-11782672D01*
X16440621Y-11798138D01*
X16414819Y-11828502D01*
X16388751Y-11858124D01*
X16362404Y-11887020D01*
X16335762Y-11915208D01*
X16308811Y-11942703D01*
X16281537Y-11969523D01*
X16253925Y-11995683D01*
X16225959Y-12021200D01*
X16197627Y-12046092D01*
X16183318Y-12058308D01*
X17694339Y-12570390D02*
X17714954Y-12572415D01*
X17736377Y-12575237D01*
X17758357Y-12578781D01*
X17780644Y-12582972D01*
X17802987Y-12587736D01*
X17825137Y-12592996D01*
X17846841Y-12598677D01*
X17867851Y-12604705D01*
X17887915Y-12611004D01*
X17915690Y-12620797D01*
X17939929Y-12630777D01*
X17959786Y-12640691D01*
X17977984Y-12653368D01*
X17980846Y-12656378D01*
X16136125Y-12129184D02*
X16139165Y-12151434D01*
X16146000Y-12173051D01*
X16157052Y-12191932D01*
X16170703Y-12207302D01*
X16175351Y-12211634D01*
D10*
X18730952Y-12304787D02*
X18838704Y-12331468D01*
X18328245Y-12303724D02*
X18365899Y-12290611D01*
D11*
X17261455Y-9426418D02*
X17247953Y-9448086D01*
X17238071Y-9468709D01*
X17231779Y-9488161D01*
X17228923Y-9512060D01*
X17232324Y-9533357D01*
X17241911Y-9551755D01*
X17257612Y-9566957D01*
X17279357Y-9578666D01*
X17299588Y-9584976D01*
D10*
X18334114Y-8760902D02*
X18313221Y-8721992D01*
D11*
X19163952Y-10189098D02*
X19161349Y-10168868D01*
X19157486Y-10157483D01*
X18349349Y-8348848D02*
X18360467Y-8331846D01*
X18376608Y-8314687D01*
X18391701Y-8301220D01*
X18409690Y-8286811D01*
X18426125Y-8274646D01*
X18439621Y-8265170D01*
D10*
X16955796Y-10123478D02*
X16960654Y-10150053D01*
D11*
X17196490Y-12350790D02*
X17219716Y-12350484D01*
X17242264Y-12349495D01*
X17264456Y-12347766D01*
X17286616Y-12345237D01*
X17309069Y-12341850D01*
X17332137Y-12337546D01*
X17356144Y-12332267D01*
X17381414Y-12325953D01*
X17408272Y-12318546D01*
X17437039Y-12309988D01*
X17457439Y-12303614D01*
X19048221Y-12303882D02*
X19067663Y-12295983D01*
X19087606Y-12286989D01*
X19108766Y-12276526D01*
X19127051Y-12266847D01*
X19146941Y-12255798D01*
X19168803Y-12243186D01*
X19186713Y-12232587D01*
X19199460Y-12224933D01*
X18431642Y-8033760D02*
X18409115Y-8031411D01*
X18388474Y-8029072D01*
X18360842Y-8025524D01*
X18336923Y-8021854D01*
X18316400Y-8017974D01*
X18293768Y-8012326D01*
X18272026Y-8004215D01*
X18253597Y-7992412D01*
X18244777Y-7982970D01*
D10*
X16972732Y-10104157D02*
X16955796Y-10123478D01*
D11*
X19927141Y-12088741D02*
X19917799Y-12070290D01*
X19907190Y-12052933D01*
X19893463Y-12034423D01*
X19878992Y-12017273D01*
X19865482Y-12002290D01*
X19849250Y-11984950D01*
X19829896Y-11964766D01*
X19815061Y-11949490D01*
X19798543Y-11932592D01*
D12*
X17416000Y-10005000D02*
X17446000Y-10035000D01*
X17446000Y-10005000D02*
X17416000Y-10035000D01*
X18219561Y-11177273D02*
X18249561Y-11207273D01*
X18249561Y-11177273D02*
X18219561Y-11207273D01*
X18434658Y-9263342D02*
X18464658Y-9293342D01*
X18464658Y-9263342D02*
X18434658Y-9293342D01*
D11*
X16381540Y-12989358D02*
X16381540Y-12789358D01*
X16429159Y-12789358D01*
X16457730Y-12798882D01*
X16476778Y-12817930D01*
X16486302Y-12836977D01*
X16495825Y-12875073D01*
X16495825Y-12903644D01*
X16486302Y-12941739D01*
X16476778Y-12960787D01*
X16457730Y-12979834D01*
X16429159Y-12989358D01*
X16381540Y-12989358D01*
X16581540Y-12989358D02*
X16581540Y-12856025D01*
X16581540Y-12894120D02*
X16591063Y-12875073D01*
X16600587Y-12865549D01*
X16619635Y-12856025D01*
X16638683Y-12856025D01*
X16705349Y-12989358D02*
X16705349Y-12856025D01*
X16705349Y-12789358D02*
X16695825Y-12798882D01*
X16705349Y-12808406D01*
X16714873Y-12798882D01*
X16705349Y-12789358D01*
X16705349Y-12808406D01*
X16829159Y-12989358D02*
X16810111Y-12979834D01*
X16800587Y-12960787D01*
X16800587Y-12789358D01*
X16933921Y-12989358D02*
X16914873Y-12979834D01*
X16905349Y-12960787D01*
X16905349Y-12789358D01*
X17162492Y-12989358D02*
X17162492Y-12789358D01*
X17229159Y-12932215D01*
X17295825Y-12789358D01*
X17295825Y-12989358D01*
X17476778Y-12989358D02*
X17476778Y-12884596D01*
X17467254Y-12865549D01*
X17448206Y-12856025D01*
X17410111Y-12856025D01*
X17391064Y-12865549D01*
X17476778Y-12979834D02*
X17457730Y-12989358D01*
X17410111Y-12989358D01*
X17391064Y-12979834D01*
X17381540Y-12960787D01*
X17381540Y-12941739D01*
X17391064Y-12922692D01*
X17410111Y-12913168D01*
X17457730Y-12913168D01*
X17476778Y-12903644D01*
X17572016Y-12856025D02*
X17572016Y-13056025D01*
X17572016Y-12865549D02*
X17591064Y-12856025D01*
X17629159Y-12856025D01*
X17648206Y-12865549D01*
X17657730Y-12875073D01*
X17667254Y-12894120D01*
X17667254Y-12951263D01*
X17657730Y-12970311D01*
X17648206Y-12979834D01*
X17629159Y-12989358D01*
X17591064Y-12989358D01*
X17572016Y-12979834D01*
X17752968Y-12970311D02*
X17762492Y-12979834D01*
X17752968Y-12989358D01*
X17743445Y-12979834D01*
X17752968Y-12970311D01*
X17752968Y-12989358D01*
X17752968Y-12865549D02*
X17762492Y-12875073D01*
X17752968Y-12884596D01*
X17743445Y-12875073D01*
X17752968Y-12865549D01*
X17752968Y-12884596D01*
D12*
X16093921Y-13303882D02*
X16123921Y-13333882D01*
X16123921Y-13303882D02*
X16093921Y-13333882D01*
D11*
X16419635Y-13209358D02*
X16438683Y-13209358D01*
X16457730Y-13218882D01*
X16467254Y-13228406D01*
X16476778Y-13247454D01*
X16486302Y-13285549D01*
X16486302Y-13333168D01*
X16476778Y-13371263D01*
X16467254Y-13390311D01*
X16457730Y-13399834D01*
X16438683Y-13409358D01*
X16419635Y-13409358D01*
X16400587Y-13399834D01*
X16391063Y-13390311D01*
X16381540Y-13371263D01*
X16372016Y-13333168D01*
X16372016Y-13285549D01*
X16381540Y-13247454D01*
X16391063Y-13228406D01*
X16400587Y-13218882D01*
X16419635Y-13209358D01*
X16572016Y-13390311D02*
X16581540Y-13399834D01*
X16572016Y-13409358D01*
X16562492Y-13399834D01*
X16572016Y-13390311D01*
X16572016Y-13409358D01*
X16648206Y-13209358D02*
X16772016Y-13209358D01*
X16705349Y-13285549D01*
X16733921Y-13285549D01*
X16752968Y-13295073D01*
X16762492Y-13304596D01*
X16772016Y-13323644D01*
X16772016Y-13371263D01*
X16762492Y-13390311D01*
X16752968Y-13399834D01*
X16733921Y-13409358D01*
X16676778Y-13409358D01*
X16657730Y-13399834D01*
X16648206Y-13390311D01*
X16895825Y-13209358D02*
X16914873Y-13209358D01*
X16933921Y-13218882D01*
X16943445Y-13228406D01*
X16952968Y-13247454D01*
X16962492Y-13285549D01*
X16962492Y-13333168D01*
X16952968Y-13371263D01*
X16943445Y-13390311D01*
X16933921Y-13399834D01*
X16914873Y-13409358D01*
X16895825Y-13409358D01*
X16876778Y-13399834D01*
X16867254Y-13390311D01*
X16857730Y-13371263D01*
X16848206Y-13333168D01*
X16848206Y-13285549D01*
X16857730Y-13247454D01*
X16867254Y-13228406D01*
X16876778Y-13218882D01*
X16895825Y-13209358D01*
X17086302Y-13209358D02*
X17105349Y-13209358D01*
X17124397Y-13218882D01*
X17133921Y-13228406D01*
X17143445Y-13247454D01*
X17152968Y-13285549D01*
X17152968Y-13333168D01*
X17143445Y-13371263D01*
X17133921Y-13390311D01*
X17124397Y-13399834D01*
X17105349Y-13409358D01*
X17086302Y-13409358D01*
X17067254Y-13399834D01*
X17057730Y-13390311D01*
X17048206Y-13371263D01*
X17038683Y-13333168D01*
X17038683Y-13285549D01*
X17048206Y-13247454D01*
X17057730Y-13228406D01*
X17067254Y-13218882D01*
X17086302Y-13209358D01*
X17238683Y-13409358D02*
X17238683Y-13276025D01*
X17238683Y-13295073D02*
X17248206Y-13285549D01*
X17267254Y-13276025D01*
X17295825Y-13276025D01*
X17314873Y-13285549D01*
X17324397Y-13304596D01*
X17324397Y-13409358D01*
X17324397Y-13304596D02*
X17333921Y-13285549D01*
X17352968Y-13276025D01*
X17381540Y-13276025D01*
X17400587Y-13285549D01*
X17410111Y-13304596D01*
X17410111Y-13409358D01*
X17505349Y-13409358D02*
X17505349Y-13276025D01*
X17505349Y-13295073D02*
X17514873Y-13285549D01*
X17533921Y-13276025D01*
X17562492Y-13276025D01*
X17581540Y-13285549D01*
X17591064Y-13304596D01*
X17591064Y-13409358D01*
X17591064Y-13304596D02*
X17600587Y-13285549D01*
X17619635Y-13276025D01*
X17648206Y-13276025D01*
X17667254Y-13285549D01*
X17676778Y-13304596D01*
X17676778Y-13409358D01*
X18067254Y-13199834D02*
X17895825Y-13456977D01*
X18324397Y-13209358D02*
X18343445Y-13209358D01*
X18362492Y-13218882D01*
X18372016Y-13228406D01*
X18381540Y-13247454D01*
X18391064Y-13285549D01*
X18391064Y-13333168D01*
X18381540Y-13371263D01*
X18372016Y-13390311D01*
X18362492Y-13399834D01*
X18343445Y-13409358D01*
X18324397Y-13409358D01*
X18305349Y-13399834D01*
X18295825Y-13390311D01*
X18286302Y-13371263D01*
X18276778Y-13333168D01*
X18276778Y-13285549D01*
X18286302Y-13247454D01*
X18295825Y-13228406D01*
X18305349Y-13218882D01*
X18324397Y-13209358D01*
X18476778Y-13390311D02*
X18486302Y-13399834D01*
X18476778Y-13409358D01*
X18467254Y-13399834D01*
X18476778Y-13390311D01*
X18476778Y-13409358D01*
X18610111Y-13209358D02*
X18629159Y-13209358D01*
X18648206Y-13218882D01*
X18657730Y-13228406D01*
X18667254Y-13247454D01*
X18676778Y-13285549D01*
X18676778Y-13333168D01*
X18667254Y-13371263D01*
X18657730Y-13390311D01*
X18648206Y-13399834D01*
X18629159Y-13409358D01*
X18610111Y-13409358D01*
X18591064Y-13399834D01*
X18581540Y-13390311D01*
X18572016Y-13371263D01*
X18562492Y-13333168D01*
X18562492Y-13285549D01*
X18572016Y-13247454D01*
X18581540Y-13228406D01*
X18591064Y-13218882D01*
X18610111Y-13209358D01*
X18867254Y-13409358D02*
X18752968Y-13409358D01*
X18810111Y-13409358D02*
X18810111Y-13209358D01*
X18791064Y-13237930D01*
X18772016Y-13256977D01*
X18752968Y-13266501D01*
X19057730Y-13409358D02*
X18943445Y-13409358D01*
X19000587Y-13409358D02*
X19000587Y-13209358D01*
X18981540Y-13237930D01*
X18962492Y-13256977D01*
X18943445Y-13266501D01*
X19172016Y-13295073D02*
X19152968Y-13285549D01*
X19143445Y-13276025D01*
X19133921Y-13256977D01*
X19133921Y-13247454D01*
X19143445Y-13228406D01*
X19152968Y-13218882D01*
X19172016Y-13209358D01*
X19210111Y-13209358D01*
X19229159Y-13218882D01*
X19238683Y-13228406D01*
X19248206Y-13247454D01*
X19248206Y-13256977D01*
X19238683Y-13276025D01*
X19229159Y-13285549D01*
X19210111Y-13295073D01*
X19172016Y-13295073D01*
X19152968Y-13304596D01*
X19143445Y-13314120D01*
X19133921Y-13333168D01*
X19133921Y-13371263D01*
X19143445Y-13390311D01*
X19152968Y-13399834D01*
X19172016Y-13409358D01*
X19210111Y-13409358D01*
X19229159Y-13399834D01*
X19238683Y-13390311D01*
X19248206Y-13371263D01*
X19248206Y-13333168D01*
X19238683Y-13314120D01*
X19229159Y-13304596D01*
X19210111Y-13295073D01*
X19324397Y-13209358D02*
X19324397Y-13247454D01*
X19400587Y-13209358D02*
X19400587Y-13247454D01*
X19695825Y-13485549D02*
X19686302Y-13476025D01*
X19667254Y-13447454D01*
X19657730Y-13428406D01*
X19648206Y-13399834D01*
X19638683Y-13352215D01*
X19638683Y-13314120D01*
X19648206Y-13266501D01*
X19657730Y-13237930D01*
X19667254Y-13218882D01*
X19686302Y-13190311D01*
X19695825Y-13180787D01*
X19752968Y-13209358D02*
X19876778Y-13209358D01*
X19810111Y-13285549D01*
X19838683Y-13285549D01*
X19857730Y-13295073D01*
X19867254Y-13304596D01*
X19876778Y-13323644D01*
X19876778Y-13371263D01*
X19867254Y-13390311D01*
X19857730Y-13399834D01*
X19838683Y-13409358D01*
X19781540Y-13409358D01*
X19762492Y-13399834D01*
X19752968Y-13390311D01*
X20114873Y-13409358D02*
X20114873Y-13209358D01*
X20200587Y-13409358D02*
X20200587Y-13304596D01*
X20191064Y-13285549D01*
X20172016Y-13276025D01*
X20143445Y-13276025D01*
X20124397Y-13285549D01*
X20114873Y-13295073D01*
X20324397Y-13409358D02*
X20305349Y-13399834D01*
X20295825Y-13390311D01*
X20286302Y-13371263D01*
X20286302Y-13314120D01*
X20295825Y-13295073D01*
X20305349Y-13285549D01*
X20324397Y-13276025D01*
X20352968Y-13276025D01*
X20372016Y-13285549D01*
X20381540Y-13295073D01*
X20391064Y-13314120D01*
X20391064Y-13371263D01*
X20381540Y-13390311D01*
X20372016Y-13399834D01*
X20352968Y-13409358D01*
X20324397Y-13409358D01*
X20505349Y-13409358D02*
X20486302Y-13399834D01*
X20476778Y-13380787D01*
X20476778Y-13209358D01*
X20657730Y-13399834D02*
X20638683Y-13409358D01*
X20600587Y-13409358D01*
X20581540Y-13399834D01*
X20572016Y-13380787D01*
X20572016Y-13304596D01*
X20581540Y-13285549D01*
X20600587Y-13276025D01*
X20638683Y-13276025D01*
X20657730Y-13285549D01*
X20667254Y-13304596D01*
X20667254Y-13323644D01*
X20572016Y-13342692D01*
X20743445Y-13399834D02*
X20762492Y-13409358D01*
X20800587Y-13409358D01*
X20819635Y-13399834D01*
X20829159Y-13380787D01*
X20829159Y-13371263D01*
X20819635Y-13352215D01*
X20800587Y-13342692D01*
X20772016Y-13342692D01*
X20752968Y-13333168D01*
X20743445Y-13314120D01*
X20743445Y-13304596D01*
X20752968Y-13285549D01*
X20772016Y-13276025D01*
X20800587Y-13276025D01*
X20819635Y-13285549D01*
X20895825Y-13485549D02*
X20905349Y-13476025D01*
X20924397Y-13447454D01*
X20933921Y-13428406D01*
X20943445Y-13399834D01*
X20952968Y-13352215D01*
X20952968Y-13314120D01*
X20943445Y-13266501D01*
X20933921Y-13237930D01*
X20924397Y-13218882D01*
X20905349Y-13190311D01*
X20895825Y-13180787D01*
M02*
